<svg width="105" height="71" viewBox="0 0 105 71" fill="none" xmlns="http://www.w3.org/2000/svg">
<g clip-path="url(#clip0_133_296)">
<path d="M65.0382 54.7021L64.5098 55.4413C65.5501 56.3378 66.8134 57.0146 68.2423 57.3758C70.6278 57.9789 73.1166 57.6099 75.1875 56.3966C75.6762 59.9464 78.3103 62.9495 81.9592 63.8724C82.7197 64.0644 83.4821 64.1562 84.2335 64.1562C88.2507 64.1562 91.9282 61.5287 93.037 57.5667C93.2209 57.6261 93.406 57.6789 93.5923 57.7257C98.4672 58.9581 103.454 56.0654 104.709 51.2771C105.316 48.9574 104.968 46.5447 103.728 44.4824C102.488 42.42 100.504 40.9554 98.1434 40.3583C96.2325 39.8753 94.2533 40.0091 92.453 40.7262C92.1133 39.3965 91.4676 38.1604 90.5501 37.0996C89.3265 35.6847 87.7094 34.691 85.8731 34.2272C83.5291 33.6344 81.0911 33.9674 79.0019 35.1639L74.411 41.5878L73.8802 42.33L65.5709 53.9569L65.0388 54.7015L65.0382 54.7021ZM84.0099 48.4696C84.4504 48.9466 84.6758 49.564 84.644 50.2073C84.6122 50.8505 84.327 51.4433 83.8413 51.8766C83.3856 52.2828 82.8052 52.5024 82.1944 52.5024C82.154 52.5024 82.1131 52.5012 82.0722 52.4994C81.4173 52.4682 80.8137 52.188 80.3727 51.7109C79.9316 51.2339 79.7068 50.6165 79.7386 49.9733C79.7704 49.33 80.0556 48.7372 80.5413 48.304C81.0269 47.8713 81.6549 47.6493 82.3104 47.6811C82.9653 47.7123 83.5688 47.9925 84.0099 48.4696Z" fill="#00D4FF"/>
<path d="M39.4737 27.4769L40.7401 27.2579L42.1678 27.0106L67.318 22.658L68.2246 22.5014L69.1311 22.3448C68.6198 20.4289 67.5233 18.6942 65.9582 17.3843C66.7945 16.7165 67.5214 15.9173 68.0963 15.0292C68.9479 13.7145 69.4537 12.2565 69.6003 10.6964C70.1061 5.31889 66.0632 0.539634 60.5885 0.0434074C57.9354 -0.197205 55.3477 0.591237 53.2994 2.26293C51.2511 3.93462 49.9877 6.29034 49.7428 8.89508C49.6805 9.55452 49.6872 10.2122 49.7611 10.8638C48.7513 10.4108 47.6688 10.1257 46.5558 10.0243C43.9039 9.78373 41.315 10.5722 39.2667 12.2439C37.2184 13.9155 35.955 16.2713 35.7101 18.876C35.4651 21.4808 36.2678 24.0237 37.9697 26.0356C38.4242 26.5726 38.9288 27.0545 39.4744 27.4775L39.4737 27.4769Z" fill="#00D4FF"/>
<path d="M45.9638 48.6299L42.3877 55.6773L48.3158 50.9556L45.9638 48.6299Z" fill="white"/>
<path d="M45.2259 46.3571L75.8332 26.9971L67.1335 31.1139L59.7228 34.6211L42.0529 42.9831L41.0248 54.3273L44.8331 46.8215C44.855 46.7783 44.8807 46.7381 44.9088 46.6997C44.9815 46.5617 45.089 46.4429 45.2252 46.3565L45.2259 46.3571Z" fill="white"/>
<path d="M56.4649 34.1651L57.7478 33.5578L59.305 32.821L65.9642 29.6696L67.519 28.934L68.8024 28.3262L77.3738 24.2699L78.2296 23.8655L79.102 23.4521L82.4539 21.8662L78.3854 22.57L77.4318 22.7351L76.4972 22.8971L69.4292 24.1205L68.5214 24.2771L67.613 24.4349L51.7165 27.1861L50.8081 27.3433L50.2247 27.4441L43.9961 28.5224L41.9441 28.8776L30.4784 30.8619L41.3675 41.3097L56.4649 34.1651Z" fill="white"/>
<path d="M80.4881 26.1939L47.1697 47.2682L59.4406 59.4009L63.2348 54.0918L63.7889 53.3165L64.3558 52.5233L72.0945 41.6951L72.659 40.9049L73.2155 40.1266L83.1186 26.2701L83.9732 25.0736L85.2481 23.2897L85.3874 23.0947L83.4851 24.2978L81.6378 25.4667L80.4881 26.1939Z" fill="white"/>
<path d="M99.1807 14.98C98.0499 14.6944 96.8819 14.7364 95.797 15.0916C95.172 13.1949 93.5874 11.6888 91.5757 11.18C90.0216 10.787 88.4052 11.012 87.024 11.8136C85.7521 12.5517 84.8193 13.6971 84.3673 15.0652C84.0783 14.9422 83.7784 14.8408 83.4692 14.7628C81.9151 14.3698 80.2987 14.5948 78.9175 15.3964C77.5363 16.1981 76.5552 17.4797 76.1551 19.0056C75.9657 19.7275 75.9223 20.4535 76.0054 21.1531L76.9089 20.9965L77.8155 20.8399L88.6685 18.9618C88.6734 18.9612 88.6783 18.9606 88.6826 18.96C88.6984 18.9576 88.7143 18.9558 88.7308 18.954C88.7424 18.9528 88.754 18.9516 88.7656 18.951C88.7797 18.9498 88.7937 18.9498 88.8078 18.9492C88.8212 18.9492 88.8347 18.9486 88.8481 18.9492C88.8597 18.9492 88.8713 18.9504 88.8829 18.951C88.8982 18.9522 88.9141 18.9528 88.9294 18.9546C88.9385 18.9558 88.9477 18.957 88.9568 18.9588C88.974 18.9612 88.9911 18.9636 89.0082 18.9666C89.0155 18.9678 89.0222 18.9702 89.0295 18.9714C89.0479 18.9756 89.0668 18.9798 89.0845 18.9846C89.09 18.9864 89.0955 18.9882 89.1016 18.99C89.1212 18.996 89.1401 19.002 89.1591 19.0092C89.1633 19.011 89.167 19.0128 89.1713 19.0146C89.3527 19.0866 89.5079 19.2156 89.6117 19.3837C89.6184 19.3951 89.6258 19.4059 89.6325 19.4173C89.6368 19.4257 89.641 19.4341 89.6453 19.4425C89.6533 19.4581 89.6612 19.4737 89.6685 19.4899C89.6722 19.4977 89.6753 19.5061 89.6783 19.5145C89.685 19.5313 89.6917 19.5481 89.6979 19.5655C89.6985 19.5679 89.6997 19.5697 89.7003 19.5721C89.7027 19.5793 89.704 19.5865 89.7064 19.5943C89.7113 19.6099 89.7156 19.6261 89.7199 19.6417C89.7229 19.6531 89.7247 19.6651 89.7272 19.6765C89.7296 19.6903 89.7327 19.7041 89.7345 19.7179C89.7363 19.7311 89.7382 19.7443 89.7394 19.7575C89.7406 19.7701 89.7418 19.7827 89.7425 19.7953C89.7431 19.8091 89.7437 19.8229 89.7437 19.8367C89.7437 19.8487 89.7437 19.8613 89.7437 19.8733C89.7437 19.8871 89.7425 19.9003 89.7418 19.9141C89.7406 19.9267 89.7394 19.9399 89.7382 19.9525C89.737 19.9651 89.7351 19.9777 89.7327 19.9903C89.7302 20.0041 89.7278 20.0179 89.7247 20.0311C89.7223 20.0425 89.7198 20.0539 89.7168 20.0653C89.7131 20.0797 89.7089 20.0941 89.7046 20.1085C89.7015 20.1193 89.6979 20.1295 89.6942 20.1397C89.6893 20.1541 89.6838 20.1679 89.6777 20.1823C89.6734 20.1925 89.6691 20.2027 89.6649 20.2129C89.6588 20.2261 89.652 20.2393 89.6459 20.2519C89.6404 20.2627 89.6349 20.2735 89.6288 20.2843C89.6221 20.2957 89.6154 20.3071 89.6081 20.3185C89.6007 20.3305 89.5934 20.3419 89.5855 20.3533C89.583 20.3569 89.5806 20.3605 89.5781 20.3641L86.3227 24.9195L85.5988 25.933L84.9568 26.8313C85.6727 28.4651 87.1266 29.748 88.9782 30.216C89.4773 30.342 89.9831 30.4044 90.4859 30.4044C91.547 30.4044 92.5929 30.126 93.53 29.5824C94.7804 28.857 95.7029 27.7379 96.1629 26.4004C96.1714 26.4028 96.1794 26.4046 96.1879 26.407C99.3957 27.2177 102.677 25.3144 103.502 22.1642C103.902 20.6377 103.673 19.05 102.857 17.6934C102.041 16.3367 100.736 15.373 99.1819 14.98H99.1807Z" fill="#9A63FF"/>
<path d="M16.8776 58.4057C18.2173 58.527 19.5637 58.2887 20.7683 57.7283C21.2161 58.7232 21.8844 59.6088 22.7366 60.3294C23.8381 61.2601 25.171 61.8457 26.6084 62.0335L28.154 61.1767L31.6611 59.232C31.892 59.1042 32.1553 59.0862 32.3893 59.1594C32.6019 59.226 32.7912 59.3676 32.9091 59.5734C32.9549 59.6538 32.9873 59.7378 33.0063 59.823C34.1327 58.6662 34.8847 57.1427 35.046 55.4284C35.2623 53.1267 34.3716 50.8999 32.6782 49.3639C34.1083 48.1344 35.0033 46.4297 35.1816 44.5336C35.3655 42.5799 34.7638 40.673 33.487 39.1639C32.2103 37.6548 30.4118 36.7242 28.4228 36.5436C26.4337 36.363 24.4923 36.9546 22.9553 38.2081C21.4189 39.4621 20.4715 41.2286 20.2876 43.1823C20.2613 43.4601 20.2521 43.7368 20.2583 44.0128L21.177 43.621L22.1282 43.2153L28.4405 40.5248C28.9048 40.3268 29.4442 40.5362 29.6458 40.9922C29.8474 41.4482 29.6342 41.9781 29.1699 42.1761L22.2424 45.1288L21.3908 45.4919L21.0512 45.6365L19.9925 46.0877L12.1823 49.4167L11.1218 49.8685L10.1316 50.2903C10.1267 50.3317 10.1224 50.3731 10.1181 50.4145C9.93425 52.3682 10.5366 54.2751 11.8127 55.7842C13.0895 57.2933 14.8879 58.2239 16.877 58.4045L16.8776 58.4057ZM17.7591 51.3992C17.7909 50.7559 18.0762 50.1631 18.5618 49.7299C19.0475 49.2967 19.6755 49.0752 20.331 49.107C20.9858 49.1382 21.5894 49.4185 22.0304 49.8955C22.4715 50.3725 22.6963 50.9899 22.6645 51.6332C22.6328 52.2764 22.3475 52.8692 21.8618 53.3025C21.4061 53.7087 20.8258 53.9283 20.2149 53.9283C20.1746 53.9283 20.1336 53.9271 20.0927 53.9253C19.4378 53.8941 18.8343 53.6139 18.3932 53.1369C17.9528 52.6598 17.7273 52.0424 17.7591 51.3992Z" fill="#9A63FF"/>
<path d="M14.3669 46.5251L16.3675 45.6724L18.5875 44.7262L19.9669 44.1382C19.414 43.9527 18.8392 43.8309 18.2527 43.7775C14.9967 43.4823 12.029 45.2932 10.7504 48.0666L12.1304 47.4785L14.3669 46.5251V46.5251Z" fill="#9A63FF"/>
<path d="M82.0715 52.499C82.1125 52.5008 82.1528 52.502 82.1937 52.502C82.8046 52.502 83.3855 52.2824 83.8407 51.8762C84.3263 51.4435 84.6116 50.8507 84.6434 50.2069C84.6751 49.563 84.4503 48.9462 84.0093 48.4692C83.5682 47.9922 82.9653 47.7119 82.3098 47.6807C81.6543 47.6489 81.0263 47.8704 80.5407 48.3036C80.055 48.7362 79.7697 49.329 79.7379 49.9729C79.7062 50.6161 79.931 51.2335 80.372 51.7106C80.8131 52.1876 81.416 52.4678 82.0715 52.499Z" fill="black"/>
<path d="M25.5137 19.9904C25.554 19.9922 25.5944 19.9934 25.6347 19.9934C26.934 19.9934 28.022 18.9872 28.0862 17.6989C28.1522 16.3704 27.1051 15.2376 25.7526 15.1728C24.4019 15.1086 23.2461 16.1364 23.1807 17.4649C23.1148 18.7934 24.1618 19.9262 25.5143 19.991L25.5137 19.9904Z" fill="black"/>
<path d="M77.463 10.2489C77.5039 10.2507 77.5443 10.2519 77.5852 10.2519C78.1961 10.2519 78.777 10.0323 79.2321 9.62607C79.7178 9.19344 80.0031 8.60061 80.0349 7.95678C80.0666 7.31294 79.8418 6.69611 79.4008 6.21908C78.9597 5.74206 78.3567 5.46184 77.7013 5.43064C77.0446 5.39944 76.4178 5.62025 75.9321 6.05347C75.4465 6.4867 75.1612 7.07893 75.1294 7.72276C75.0977 8.366 75.3225 8.98343 75.7635 9.46046C76.204 9.93748 76.8075 10.2177 77.463 10.2489Z" fill="black"/>
<path d="M18.9711 28.4482C19.0121 28.45 19.0524 28.4512 19.0933 28.4512C19.7042 28.4512 20.2852 28.2316 20.7403 27.8254C21.2259 27.3928 21.5112 26.7999 21.543 26.1561C21.6089 24.8276 20.5619 23.6948 19.2094 23.63C18.5539 23.5982 17.9259 23.8196 17.4402 24.2528C16.9546 24.6854 16.6693 25.2782 16.6375 25.9221C16.6058 26.5653 16.8306 27.1827 17.2716 27.6598C17.7121 28.1368 18.3156 28.417 18.9711 28.4482V28.4482Z" fill="black"/>
<path d="M20.0927 53.9258C20.1336 53.9276 20.174 53.9288 20.2149 53.9288C20.8258 53.9288 21.4067 53.7091 21.8618 53.3029C22.3475 52.8703 22.6328 52.2775 22.6646 51.6336C22.6963 50.9904 22.4715 50.373 22.0305 49.8959C21.5894 49.4189 20.9864 49.1387 20.331 49.1075C19.6755 49.0757 19.0475 49.2971 18.5618 49.7303C18.0762 50.1636 17.7909 50.7558 17.7591 51.3996C17.7274 52.0429 17.9522 52.6603 18.3932 53.1373C18.8337 53.6143 19.4372 53.8946 20.0927 53.9258Z" fill="black"/>
<path d="M89.7382 19.7581C89.737 19.7449 89.7352 19.7317 89.7333 19.7185C89.7315 19.7047 89.7284 19.6909 89.726 19.6771C89.7235 19.6657 89.7217 19.6537 89.7187 19.6423C89.715 19.6261 89.7101 19.6105 89.7052 19.5949C89.7028 19.5877 89.7016 19.5805 89.6991 19.5727C89.6985 19.5703 89.6973 19.5685 89.6967 19.5661C89.6906 19.5487 89.6838 19.5318 89.6771 19.515C89.6741 19.5066 89.671 19.4988 89.6673 19.4904C89.66 19.4742 89.6521 19.4586 89.6441 19.443C89.6398 19.4346 89.6362 19.4256 89.6313 19.4178C89.6252 19.4064 89.6179 19.3956 89.6105 19.3842C89.5953 19.3596 89.5794 19.3362 89.5617 19.3134C89.5543 19.3032 89.5458 19.2936 89.5378 19.284C89.5274 19.2714 89.5171 19.2594 89.5061 19.2474C89.4994 19.2402 89.4939 19.2324 89.4865 19.2252C89.4829 19.2216 89.4786 19.218 89.4749 19.2144C89.4658 19.2054 89.456 19.1964 89.4462 19.188C89.4267 19.1706 89.4071 19.1538 89.3863 19.1382C89.3747 19.1292 89.3637 19.1208 89.3515 19.1124C89.3405 19.1046 89.3289 19.0974 89.3173 19.0902C89.3033 19.0812 89.2886 19.0728 89.2745 19.065C89.2648 19.0596 89.255 19.0542 89.2452 19.0494C89.2202 19.0368 89.1951 19.0248 89.1695 19.0146C89.1652 19.0128 89.1615 19.011 89.1573 19.0092C89.1383 19.002 89.1194 18.996 89.0998 18.99C89.0943 18.9882 89.0888 18.9858 89.0827 18.9846C89.0644 18.9792 89.0461 18.975 89.0277 18.9714C89.0204 18.9696 89.0137 18.9678 89.0064 18.9666C88.9893 18.963 88.9722 18.9612 88.9551 18.9588C88.9459 18.9576 88.9367 18.9558 88.9276 18.9546C88.9123 18.9528 88.897 18.9522 88.8811 18.951C88.8695 18.9504 88.8579 18.9492 88.8463 18.9492C88.8329 18.9492 88.8194 18.9492 88.806 18.9492C88.7919 18.9492 88.7779 18.9492 88.7638 18.951C88.7522 18.9516 88.7406 18.9528 88.729 18.954C88.7131 18.9558 88.6973 18.9576 88.6808 18.96C88.6759 18.9606 88.671 18.9612 88.6667 18.9618L77.8137 20.8399L76.9071 20.9965L76.0036 21.1531L69.1287 22.343L68.2221 22.4996L67.3156 22.6562L42.1653 27.0089L40.7377 27.2561L39.4713 27.4751L28.3996 29.3916C28.0612 29.4504 27.7844 29.6898 27.683 30.012C27.5816 30.3348 27.6726 30.6858 27.9182 30.9217L40.2331 42.7381L38.7676 58.9096C38.7663 58.9258 38.7657 58.942 38.7651 58.9582C38.7651 58.9672 38.7639 58.9762 38.7639 58.9852C38.7639 59.0122 38.7645 59.0398 38.767 59.0668V59.068C38.7694 59.0956 38.7731 59.1226 38.7786 59.1496C38.7804 59.1592 38.7828 59.1688 38.7853 59.1784C38.789 59.1952 38.7926 59.2126 38.7975 59.2294C38.8012 59.2414 38.8048 59.2528 38.8085 59.2648C38.8134 59.2792 38.8183 59.2936 38.8238 59.308C38.8287 59.32 38.8335 59.332 38.839 59.344C38.8452 59.3578 38.8513 59.3716 38.858 59.3848C38.8635 59.3962 38.8696 59.407 38.8757 59.4184C38.8836 59.4328 38.8928 59.4472 38.9014 59.4616C38.9075 59.4712 38.913 59.4802 38.9191 59.4892C38.9319 59.5078 38.9453 59.5258 38.96 59.5438C38.9631 59.5474 38.9655 59.5516 38.9686 59.5552C38.9686 59.5552 38.9698 59.5564 38.9704 59.557C38.9905 59.5816 39.0119 59.6044 39.0345 59.626C39.0412 59.6326 39.048 59.6386 39.0547 59.6446C39.0712 59.6596 39.0877 59.674 39.1048 59.6878C39.1133 59.6944 39.1219 59.701 39.1304 59.7076C39.1488 59.7214 39.1677 59.734 39.1872 59.746C39.194 59.7502 39.2007 59.755 39.2074 59.7592C39.2331 59.7742 39.2587 59.788 39.2856 59.8006C39.2954 59.8054 39.3058 59.809 39.3155 59.8132C39.3339 59.821 39.3522 59.8282 39.3705 59.8348C39.3821 59.839 39.3937 59.8426 39.4059 59.8462C39.4145 59.8486 39.4224 59.8522 39.431 59.8546C39.4444 59.8582 39.4579 59.8612 39.4719 59.8642C39.4768 59.8654 39.4817 59.8666 39.4872 59.8678C39.5159 59.8738 39.5452 59.8786 39.5746 59.8816C39.5801 59.8822 39.5856 59.8828 39.591 59.8834C39.621 59.8864 39.6515 59.8882 39.6815 59.8882C39.7053 59.8882 39.7291 59.887 39.7523 59.8852C39.7597 59.8852 39.767 59.8834 39.7743 59.8828C39.7896 59.881 39.8055 59.8792 39.8207 59.8768C39.8305 59.875 39.8409 59.8738 39.8507 59.8714C39.8635 59.869 39.8757 59.8666 39.8886 59.8636C39.8995 59.8612 39.9105 59.8588 39.9215 59.8558C39.9331 59.8528 39.9441 59.8492 39.9557 59.8456C39.9667 59.842 39.9783 59.839 39.9893 59.8348C40.0095 59.8276 40.0291 59.8198 40.0486 59.8114C40.0584 59.8072 40.0675 59.8024 40.0773 59.7976C40.0895 59.7916 40.1018 59.7862 40.1134 59.7796C40.1225 59.7748 40.1311 59.77 40.1396 59.7646C40.1531 59.7568 40.1659 59.749 40.1787 59.7412C40.1861 59.737 40.1928 59.7322 40.2001 59.7274C40.2184 59.7154 40.2361 59.7022 40.2532 59.6884C40.2545 59.6872 40.2563 59.6866 40.2575 59.6854L40.2594 59.6836L40.2624 59.6812L49.6114 52.2342L58.9091 61.4279C59.082 61.5989 59.316 61.6937 59.5591 61.6937C59.5848 61.6937 59.6111 61.6925 59.6367 61.6907C59.9067 61.6679 60.1529 61.5293 60.3087 61.3109L64.5061 55.4372L65.0345 54.6979L65.5666 53.9533L73.8759 42.3265L74.4068 41.5842L78.9976 35.1603L84.9519 26.8288L85.5939 25.9306L86.3178 24.9171L89.5733 20.3617C89.5757 20.3581 89.5782 20.3545 89.5806 20.3509C89.5885 20.3395 89.5959 20.3275 89.6032 20.3161C89.6099 20.3047 89.6172 20.2939 89.624 20.2819C89.6301 20.2711 89.6356 20.2603 89.6411 20.2495C89.6478 20.2363 89.6545 20.2237 89.66 20.2105C89.6649 20.2003 89.6686 20.1901 89.6728 20.1799C89.6783 20.1661 89.6845 20.1517 89.6893 20.1373C89.693 20.1271 89.6961 20.1163 89.6997 20.1061C89.704 20.0917 89.7083 20.0773 89.7119 20.0629C89.715 20.0515 89.7174 20.0401 89.7199 20.0287C89.7229 20.0149 89.7254 20.0011 89.7278 19.9879C89.7297 19.9753 89.7315 19.9627 89.7333 19.9501C89.7345 19.9375 89.7364 19.9243 89.737 19.9117C89.7382 19.8979 89.7388 19.8847 89.7388 19.8709C89.7388 19.8589 89.7388 19.8463 89.7388 19.8343C89.7388 19.8205 89.7382 19.8067 89.7376 19.7929C89.737 19.7803 89.7358 19.7677 89.7345 19.7551L89.7382 19.7581ZM83.1186 26.2696L73.2161 40.1262L72.6596 40.905L72.0952 41.6952L64.3564 52.5234L63.7895 53.3167L63.2355 54.0919L59.4412 59.401L47.1703 47.2677L80.4881 26.1934L81.6378 25.4662L83.4858 24.2973L85.3881 23.0942L85.2488 23.2893L83.9739 25.0737L83.1192 26.2696H83.1186ZM42.3883 55.6766L45.9644 48.6292L48.3164 50.9549L42.3883 55.6766V55.6766ZM50.2248 27.4433L50.8088 27.3425L51.7172 27.1853L67.6137 24.4341L68.5221 24.2769L69.4299 24.1197L76.4972 22.8962L77.4319 22.7342L78.3855 22.5692L82.454 21.8648L79.102 23.4513L78.2297 23.8641L77.3744 24.2691L68.8031 28.3253L67.5196 28.9326L65.9649 29.6682L59.3056 32.8196L57.7485 33.5564L56.4662 34.163L41.3687 41.3076L30.4797 30.8599L41.9454 28.8755L43.9968 28.5203L50.2254 27.4421L50.2248 27.4433ZM45.2259 46.3563C45.0896 46.4421 44.9821 46.5615 44.9094 46.6995C44.8819 46.7379 44.8557 46.7775 44.8337 46.8213L41.0254 54.3271L42.0535 42.9829L59.7235 34.6209L67.1341 31.1137L75.8338 26.9968L45.2265 46.3569L45.2259 46.3563Z" fill="black"/>
<path d="M21.0518 45.6375L21.3915 45.4929L22.2431 45.1299L29.1705 42.1771C29.6348 41.9791 29.848 41.4493 29.6464 40.9933C29.4448 40.5372 28.9054 40.3278 28.4411 40.5258L22.1288 43.2164L21.1777 43.622L20.2589 44.0138L19.9675 44.138L18.5881 44.7261L16.3682 45.6723L14.3675 46.525L12.131 47.4784L10.751 48.0664L0.551656 52.4125C0.0873813 52.6105 -0.125819 53.1403 0.0757744 53.5963C0.225442 53.936 0.562652 54.1382 0.916967 54.1382C1.03853 54.1382 1.16254 54.1142 1.28106 54.0638L10.1316 50.2914L11.1218 49.8695L12.1823 49.4177L19.9925 46.0887L21.0512 45.6375H21.0518Z" fill="black"/>
<path d="M51.3536 59.6891C51.0989 59.2595 50.5375 59.1143 50.1007 59.3651L34.2714 68.4286C33.834 68.6788 33.6862 69.2303 33.9415 69.6593C34.1119 69.9461 34.4186 70.1063 34.7338 70.1063C34.8908 70.1063 35.0497 70.0667 35.1944 69.9839L51.0238 60.9204C51.4612 60.6702 51.609 60.1188 51.3536 59.6897V59.6891Z" fill="black"/>
<path d="M13.1261 70.5427C13.2947 70.8355 13.6051 71.0006 13.9252 71.0006C14.0779 71.0006 14.2325 70.9633 14.3748 70.8841L32.5621 60.8C32.9213 60.6008 33.0912 60.1994 33.0069 59.8238C32.9879 59.7386 32.9555 59.6539 32.9097 59.5741C32.7912 59.3683 32.6025 59.2261 32.3899 59.1601C32.1559 59.0869 31.8926 59.1049 31.6617 59.2327L28.1546 61.1774L26.609 62.0343L13.475 69.3169C13.0345 69.5611 12.8787 70.1101 13.1274 70.5433L13.1261 70.5427Z" fill="black"/>
</g>
<defs>
<clipPath id="clip0_133_296">
<rect width="105" height="71" fill="white"/>
</clipPath>
</defs>
</svg>
