<svg width="113" height="135" viewBox="0 0 113 135" fill="none" xmlns="http://www.w3.org/2000/svg">
<g clip-path="url(#clip0_109_78)">
<rect x="35.2089" y="107.694" width="66.5294" height="15.5881" rx="7.79407" transform="rotate(-19.4 35.2089 107.694)" fill="white" stroke="white" stroke-width="18.8235"/>
<path d="M74.4881 32.2366L55.0047 39.0978L53.6641 35.2909L62.6933 21.6729L62.6484 21.6443C63.058 21.0265 63.3411 20.3365 63.4815 19.6137C63.622 18.8909 63.617 18.1496 63.4669 17.4319C63.3168 16.7142 63.0245 16.0343 62.6067 15.431C62.1888 14.8276 61.6537 14.3127 61.0318 13.9156C60.4099 13.5185 59.7134 13.2469 58.9821 13.1164C58.2507 12.986 57.4989 12.9991 56.7695 13.1552C56.0401 13.3112 55.3474 13.6071 54.731 14.0259C54.1146 14.4447 53.5864 14.9783 53.1768 15.5961L53.1321 15.5676L42.552 31.5252C42.0694 32.253 41.7617 33.0786 41.6526 33.9382C41.5435 34.7979 41.636 35.6685 41.9228 36.4829L44.1853 42.9078L19.7423 51.5156C19.302 51.6706 18.9402 51.9912 18.7366 52.4067C18.533 52.8222 18.5041 53.2986 18.6565 53.7312L22.3289 64.1598C22.4813 64.5923 22.8023 64.9456 23.2213 65.1418C23.6404 65.338 24.1232 65.3611 24.5635 65.2061L28.6606 63.7633L29.7171 65.9576L30.5138 67.6138L45.7136 99.2074C46.3923 100.618 47.5783 101.726 49.0438 102.318C50.5093 102.91 52.151 102.945 53.6536 102.416L79.9549 93.1538C81.4575 92.6245 82.715 91.5686 83.486 90.1888C84.2571 88.809 84.4873 87.2026 84.1324 85.678L76.1816 51.5317L75.7649 49.7417L75.2133 47.3695L79.3093 45.9271C79.7496 45.772 80.1114 45.4515 80.3151 45.036C80.5187 44.6205 80.5476 44.144 80.3953 43.7114L76.7229 33.2828C76.5705 32.8503 76.2494 32.497 75.8303 32.3008C75.4112 32.1046 74.9284 32.0815 74.4881 32.2366Z" fill="white" stroke="white" stroke-width="18.8235" stroke-linecap="round" stroke-linejoin="round"/>
<path d="M72.9757 90.1291L62.1563 93.9392L41.9227 36.4825C41.6359 35.6681 41.5435 34.7974 41.6526 33.9378C41.7617 33.0782 42.0695 32.2526 42.5521 31.5248L53.1328 15.567L62.6939 21.6722L53.664 35.2905L72.9757 90.1291Z" fill="#FF4205"/>
<path d="M32.285 54.7934L66.7666 42.6505C67.6223 42.3493 68.5307 42.2284 69.4327 42.2958C70.3347 42.3632 71.2101 42.6173 72.0019 43.0416C72.7937 43.4659 73.4842 44.0509 74.0285 44.7585C74.5727 45.466 74.9585 46.2804 75.1608 47.1485L84.1326 85.6785C84.4875 87.2031 84.2573 88.8095 83.4862 90.1893C82.7152 91.5691 81.4577 92.6251 79.9551 93.1543L53.6524 102.417C52.1497 102.946 50.508 102.911 49.0425 102.319C47.5771 101.727 46.3911 100.619 45.7123 99.2084L28.5616 63.5586C28.1752 62.7553 27.9656 61.8789 27.9464 60.9865C27.9272 60.094 28.0988 59.2054 28.45 58.3786C28.8013 57.5518 29.3243 56.8052 29.985 56.1875C30.6458 55.5698 31.4294 55.0948 32.285 54.7934Z" fill="#4DB3FF"/>
<path d="M74.4884 32.2372L19.742 51.5164C18.825 51.8393 18.3389 52.8313 18.6561 53.7321L22.3286 64.1606C22.6458 65.0614 23.6462 65.5298 24.5631 65.2069L79.3096 45.9277C80.2265 45.6048 80.7127 44.6128 80.3955 43.7121L76.723 33.2835C76.4058 32.3827 75.4054 31.9143 74.4884 32.2372Z" fill="#5ECAFF"/>
<path d="M59.7669 23.8854C62.7272 22.843 64.2968 19.6403 63.2727 16.7322C62.2485 13.8241 59.0185 12.3116 56.0583 13.3541C53.098 14.3966 51.5284 17.5992 52.5525 20.5074C53.5766 23.4155 56.8066 24.9279 59.7669 23.8854Z" fill="url(#paint0_linear_109_78)"/>
<g opacity="0.16">
<path d="M51.8673 63.0681L39.5314 67.4123C38.527 67.766 37.9944 68.8527 38.3419 69.8394L42.6095 81.958C42.957 82.9447 44.053 83.4579 45.0574 83.1042L57.3932 78.7601C58.3977 78.4063 58.9303 77.3196 58.5828 76.3329L54.3152 64.2144C53.9677 63.2276 52.8717 62.7144 51.8673 63.0681Z" fill="url(#paint1_linear_109_78)"/>
<path opacity="0.9" d="M77.3147 76.4573L65.5743 70.9599C64.6183 70.5123 63.4667 70.9178 63.0022 71.8657L57.2971 83.5065C56.8325 84.4544 57.2309 85.5857 58.1869 86.0333L69.9273 91.5306C70.8833 91.9783 72.0348 91.5727 72.4994 90.6249L78.2045 78.984C78.669 78.0362 78.2706 76.9049 77.3147 76.4573Z" fill="url(#paint2_linear_109_78)"/>
</g>
<path opacity="0.35" d="M76.1814 51.5321L30.5129 67.6145L28.6604 63.7637L75.2123 47.3702L76.1814 51.5321Z" fill="#517CEA"/>
<path d="M45.21 74.2314C46.7783 73.6792 47.6098 71.9825 47.0672 70.4419C46.5247 68.9013 44.8136 68.1001 43.2454 68.6524C41.6771 69.2046 40.8456 70.9012 41.3882 72.4419C41.9307 73.9825 43.6418 74.7837 45.21 74.2314Z" fill="#292929"/>
<path d="M68.8735 65.8984C70.4418 65.3461 71.2733 63.6495 70.7307 62.1089C70.1882 60.5683 68.4771 59.7671 66.9089 60.3194C65.3406 60.8716 64.5091 62.5682 65.0517 64.1088C65.5942 65.6495 67.3053 66.4507 68.8735 65.8984Z" fill="#292929"/>
<path fill-rule="evenodd" clip-rule="evenodd" d="M51.8152 68.4309C52.3114 68.251 52.8501 68.5199 53.1637 68.9445C53.4951 69.3932 53.9381 69.7568 54.4573 69.997C55.2712 70.3735 56.2065 70.4161 57.0598 70.1156C57.9131 69.8152 58.6153 69.1959 59.0137 68.3925C59.2678 67.8799 59.3852 67.319 59.3624 66.7616C59.3407 66.2342 59.592 65.6871 60.0914 65.5164C60.5911 65.3456 61.1442 65.6128 61.2199 66.1354C61.3702 67.1733 61.2023 68.2433 60.7259 69.204C60.1056 70.4549 59.0122 71.4192 57.6836 71.8871C56.355 72.355 54.8987 72.2886 53.6314 71.7024C52.6582 71.2522 51.8569 70.5234 51.3237 69.6204C51.0552 69.1657 51.3188 68.6109 51.8152 68.4309Z" fill="#292929"/>
<path d="M43.741 104.69C45.7487 103.983 47.3863 104.514 47.9194 104.327C48.3695 104.168 48.4445 103.984 48.7917 103.862C49.652 103.559 51.204 104.436 51.9903 106.669C52.3938 107.815 52.0362 109.025 50.8288 109.45C48.7181 110.194 47.9976 106.446 44.3508 107.731C42.7731 108.286 42.6269 109.964 43.0166 111.071C44.0647 114.047 46.5763 116.012 49.4443 115.002C52.0466 114.085 51.9467 112.561 52.5827 112.337C53.1772 112.128 53.705 112.71 53.8823 113.213C54.194 114.098 53.9022 116.28 52.8791 116.641C52.1817 116.886 51.1594 118.558 48.7415 119.409C44.4362 120.922 39.7367 118.825 38.3133 114.783C36.8617 110.661 39.704 106.111 43.741 104.69Z" fill="#FF4205"/>
<path d="M53.8023 109.328C52.3014 105.066 54.7015 100.83 59.1686 99.2569C64.8232 97.2656 68.7161 101.387 69.6299 103.982C71.1526 108.306 68.2656 112.532 64.0857 114.004C59.7609 115.525 55.3107 113.612 53.8023 109.328ZM59.2804 102.585C58.1329 102.989 57.9708 104.358 58.3175 105.342C58.9196 107.052 61.8406 111.424 64.0543 110.645C65.3047 110.204 65.4608 108.951 65.0785 107.866C64.4345 106.037 61.6783 101.74 59.2804 102.585Z" fill="#FF4205"/>
<path d="M70.5603 103.427C69.0593 99.1648 71.4609 94.9281 75.9265 93.3555C81.5811 91.3642 85.474 95.4857 86.3878 98.0804C87.9105 102.404 85.0235 106.631 80.8436 108.103C76.5203 109.624 72.0687 107.71 70.5603 103.427ZM76.0399 96.6829C74.8923 97.087 74.7303 98.4557 75.077 99.4402C75.6791 101.15 78.6001 105.522 80.8137 104.743C82.0642 104.302 82.2203 103.049 81.838 101.964C81.1925 100.135 78.4363 95.839 76.0399 96.6829Z" fill="#FF4205"/>
<path d="M91.6014 103.996C90.9455 104.227 89.9152 104.636 89.5892 103.71C89.1501 102.463 91.1162 102.947 90.3558 100.591C89.8801 99.1081 89.4272 97.822 89.0094 96.6355C88.5846 95.4293 88.0851 94.3393 87.6485 93.2271C87.0124 91.5531 85.5221 93.0727 85.1181 91.9253C84.601 90.4569 87.7895 89.2442 88.7942 88.8904C92.8927 87.4471 93.338 88.0596 93.5785 88.7426C93.9895 89.9096 92.0587 89.5947 92.724 91.4839L94.9757 97.878C95.4854 99.3253 95.9791 99.9429 97.4339 99.4306C100.916 98.2042 98.7445 95.8271 100.055 95.3657C100.977 95.0411 101.665 95.8832 101.934 96.6476C102.486 98.2156 102.047 100.631 101.106 100.963C100.737 101.092 100.421 101.114 100.032 101.183C99.6147 101.24 99.1419 101.339 98.446 101.584L91.6009 103.994L91.6014 103.996Z" fill="#FF4205"/>
</g>
<defs>
<linearGradient id="paint0_linear_109_78" x1="61.0798" y1="13.9602" x2="55.0461" y2="23.5145" gradientUnits="userSpaceOnUse">
<stop offset="0.505208" stop-color="#942637"/>
<stop offset="1" stop-color="#691B02"/>
</linearGradient>
<linearGradient id="paint1_linear_109_78" x1="45.6994" y1="65.2402" x2="51.2253" y2="80.9321" gradientUnits="userSpaceOnUse">
<stop stop-color="white"/>
<stop offset="1" stop-color="white" stop-opacity="0"/>
</linearGradient>
<linearGradient id="paint2_linear_109_78" x1="71.4445" y1="73.7086" x2="64.3273" y2="88.9085" gradientUnits="userSpaceOnUse">
<stop stop-color="white"/>
<stop offset="1" stop-color="white" stop-opacity="0"/>
</linearGradient>
<clipPath id="clip0_109_78">
<rect width="78" height="114" fill="white" transform="translate(0.666504 26.8726) rotate(-19.4)"/>
</clipPath>
</defs>
</svg>
