<?xml version="1.0" encoding="UTF-8"?>
<svg id="Objects" xmlns="http://www.w3.org/2000/svg" viewBox="0 0 2200 1466">
  <defs>
    <style>
      .cls-1 {
        fill: #fff;
      }
    </style>
  </defs>
  <rect class="cls-1" width="2200" height="1466"/>
  <path d="M57.44,47.11c-1.52,6.28-6.7,11.53-12.95,13.13-7.43,1.91-16.36-1.82-19.07-9-3.81-10.1-1.76-21.17,10.16-25.42,5.78-2.06,12.64.07,17.03,4.36,4.39,4.29,6.28,10.96,4.84,16.92Z"/>
  <path d="M208.21,40.51c-.1,4.17-.25,8.51-2.23,12.19-1.74,3.24-4.82,5.67-8.26,6.98-6.79,2.58-15.06.64-19.99-4.68-4.94-5.33-6.24-13.72-3.15-20.29.15-.32.31-.63.48-.94,3.12-5.69,9.25-9.04,15.74-8.78,2.79.11,5.56.55,8.25,1.31,2.77.79,5.58,2.02,7.26,4.35,2,2.77,1.99,6.45,1.91,9.87Z"/>
  <path d="M360.07,47.11c-1.52,6.28-6.7,11.53-12.95,13.13-7.43,1.91-16.36-1.82-19.07-9-3.81-10.1-1.76-21.17,10.16-25.42,5.78-2.06,12.64.07,17.03,4.36,4.39,4.29,6.28,10.96,4.84,16.92Z"/>
  <path d="M510.84,40.51c-.1,4.17-.25,8.51-2.23,12.19-1.74,3.24-4.82,5.67-8.26,6.98-6.79,2.58-15.06.64-19.99-4.68-4.94-5.33-6.24-13.72-3.15-20.29.15-.32.31-.63.48-.94,3.12-5.69,9.25-9.04,15.74-8.78,2.79.11,5.56.55,8.25,1.31,2.77.79,5.58,2.02,7.26,4.35,2,2.77,1.99,6.45,1.91,9.87Z"/>
  <path d="M662.7,47.11c-1.52,6.28-6.7,11.53-12.95,13.13-7.43,1.91-16.36-1.82-19.07-9-3.81-10.1-1.76-21.17,10.16-25.42,5.78-2.06,12.64.07,17.03,4.36,4.39,4.29,6.28,10.96,4.84,16.92Z"/>
  <path d="M813.47,40.51c-.1,4.17-.25,8.51-2.23,12.19-1.74,3.24-4.82,5.67-8.26,6.98-6.79,2.58-15.06.64-19.99-4.68-4.94-5.33-6.24-13.72-3.15-20.29.15-.32.31-.63.48-.94,3.12-5.69,9.25-9.04,15.74-8.78,2.79.11,5.56.55,8.25,1.31,2.77.79,5.58,2.02,7.26,4.35,2,2.77,1.99,6.45,1.91,9.87Z"/>
  <path d="M965.33,47.11c-1.52,6.28-6.7,11.53-12.95,13.13-7.43,1.91-16.36-1.82-19.07-9-3.81-10.1-1.76-21.17,10.16-25.42,5.78-2.06,12.64.07,17.03,4.36,4.39,4.29,6.28,10.96,4.84,16.92Z"/>
  <path d="M1116.1,40.51c-.1,4.17-.25,8.51-2.23,12.19-1.74,3.24-4.82,5.67-8.26,6.98-6.79,2.58-15.06.64-19.99-4.68-4.94-5.33-6.24-13.72-3.15-20.29.15-.32.31-.63.48-.94,3.12-5.69,9.25-9.04,15.74-8.78,2.79.11,5.56.55,8.25,1.31,2.77.79,5.58,2.02,7.26,4.35,2,2.77,1.99,6.45,1.91,9.87Z"/>
  <path d="M1267.96,47.11c-1.52,6.28-6.7,11.53-12.95,13.13-7.43,1.91-16.36-1.82-19.07-9-3.81-10.1-1.76-21.17,10.16-25.42,5.78-2.06,12.64.07,17.03,4.36,4.39,4.29,6.28,10.96,4.84,16.92Z"/>
  <path d="M1418.73,40.51c-.1,4.17-.25,8.51-2.23,12.19-1.74,3.24-4.82,5.67-8.26,6.98-6.79,2.58-15.06.64-19.99-4.68-4.94-5.33-6.24-13.72-3.15-20.29.15-.32.31-.63.48-.94,3.12-5.69,9.25-9.04,15.74-8.78,2.79.11,5.56.55,8.25,1.31,2.77.79,5.58,2.02,7.26,4.35,2,2.77,1.99,6.45,1.91,9.87Z"/>
  <path d="M1570.59,47.11c-1.52,6.28-6.7,11.53-12.95,13.13-7.43,1.91-16.36-1.82-19.07-9-3.81-10.1-1.76-21.17,10.16-25.42,5.78-2.06,12.64.07,17.03,4.36,4.39,4.29,6.28,10.96,4.84,16.92Z"/>
  <path d="M1721.36,40.51c-.1,4.17-.25,8.51-2.23,12.19-1.74,3.24-4.82,5.67-8.26,6.98-6.79,2.58-15.06.64-19.99-4.68-4.94-5.33-6.24-13.72-3.15-20.29.15-.32.31-.63.48-.94,3.12-5.69,9.25-9.04,15.74-8.78,2.79.11,5.56.55,8.25,1.31,2.77.79,5.58,2.02,7.26,4.35,2,2.77,1.99,6.45,1.91,9.87Z"/>
  <path d="M1873.22,47.11c-1.52,6.28-6.7,11.53-12.95,13.13-7.43,1.91-16.36-1.82-19.07-9-3.81-10.1-1.76-21.17,10.16-25.42,5.78-2.06,12.64.07,17.03,4.36,4.39,4.29,6.28,10.96,4.84,16.92Z"/>
  <path d="M2023.99,40.51c-.1,4.17-.25,8.51-2.23,12.19-1.74,3.24-4.82,5.67-8.26,6.98-6.79,2.58-15.06.64-19.99-4.68-4.94-5.33-6.24-13.72-3.15-20.29.15-.32.31-.63.48-.94,3.12-5.69,9.25-9.04,15.74-8.78,2.79.11,5.56.55,8.25,1.31,2.77.79,5.58,2.02,7.26,4.35,2,2.77,1.99,6.45,1.91,9.87Z"/>
  <path d="M2175.85,47.11c-1.52,6.28-6.7,11.53-12.95,13.13-7.43,1.91-16.36-1.82-19.07-9-3.81-10.1-1.76-21.17,10.16-25.42,5.78-2.06,12.64.07,17.03,4.36,4.39,4.29,6.28,10.96,4.84,16.92Z"/>
  <path d="M133.05,165.98c-.1,4.17-.25,8.51-2.23,12.19-1.74,3.24-4.82,5.67-8.26,6.98-6.79,2.58-15.06.64-19.99-4.68-4.94-5.33-6.24-13.72-3.15-20.29.15-.32.31-.63.48-.94,3.12-5.69,9.25-9.04,15.74-8.78,2.79.11,5.56.55,8.25,1.31,2.77.79,5.58,2.02,7.26,4.35,2,2.77,1.99,6.45,1.91,9.87Z"/>
  <path d="M284.91,172.58c-1.52,6.28-6.7,11.53-12.95,13.13-7.43,1.91-16.36-1.82-19.07-9-3.81-10.1-1.76-21.17,10.16-25.42,5.78-2.06,12.64.07,17.03,4.36,4.39,4.29,6.28,10.96,4.84,16.92Z"/>
  <path d="M435.68,165.98c-.1,4.17-.25,8.51-2.23,12.19-1.74,3.24-4.82,5.67-8.26,6.98-6.79,2.58-15.06.64-19.99-4.68-4.94-5.33-6.24-13.72-3.15-20.29.15-.32.31-.63.48-.94,3.12-5.69,9.25-9.04,15.74-8.78,2.79.11,5.56.55,8.25,1.31,2.77.79,5.58,2.02,7.26,4.35,2,2.77,1.99,6.45,1.91,9.87Z"/>
  <path d="M587.54,172.58c-1.52,6.28-6.7,11.53-12.95,13.13-7.43,1.91-16.36-1.82-19.07-9-3.81-10.1-1.76-21.17,10.16-25.42,5.78-2.06,12.64.07,17.03,4.36,4.39,4.29,6.28,10.96,4.84,16.92Z"/>
  <path d="M738.31,165.98c-.1,4.17-.25,8.51-2.23,12.19-1.74,3.24-4.82,5.67-8.26,6.98-6.79,2.58-15.06.64-19.99-4.68-4.94-5.33-6.24-13.72-3.15-20.29.15-.32.31-.63.48-.94,3.12-5.69,9.25-9.04,15.74-8.78,2.79.11,5.56.55,8.25,1.31,2.77.79,5.58,2.02,7.26,4.35,2,2.77,1.99,6.45,1.91,9.87Z"/>
  <path d="M890.17,172.58c-1.52,6.28-6.7,11.53-12.95,13.13-7.43,1.91-16.36-1.82-19.07-9-3.81-10.1-1.76-21.17,10.16-25.42,5.78-2.06,12.64.07,17.03,4.36,4.39,4.29,6.28,10.96,4.84,16.92Z"/>
  <path d="M1040.94,165.98c-.1,4.17-.25,8.51-2.23,12.19-1.74,3.24-4.82,5.67-8.26,6.98-6.79,2.58-15.06.64-19.99-4.68-4.94-5.33-6.24-13.72-3.15-20.29.15-.32.31-.63.48-.94,3.12-5.69,9.25-9.04,15.74-8.78,2.79.11,5.56.55,8.25,1.31,2.77.79,5.58,2.02,7.26,4.35,2,2.77,1.99,6.45,1.91,9.87Z"/>
  <path d="M1192.8,172.58c-1.52,6.28-6.7,11.53-12.95,13.13-7.43,1.91-16.36-1.82-19.07-9-3.81-10.1-1.76-21.17,10.16-25.42,5.78-2.06,12.64.07,17.03,4.36,4.39,4.29,6.28,10.96,4.84,16.92Z"/>
  <path d="M1343.57,165.98c-.1,4.17-.25,8.51-2.23,12.19-1.74,3.24-4.82,5.67-8.26,6.98-6.79,2.58-15.06.64-19.99-4.68-4.94-5.33-6.24-13.72-3.15-20.29.15-.32.31-.63.48-.94,3.12-5.69,9.25-9.04,15.74-8.78,2.79.11,5.56.55,8.25,1.31,2.77.79,5.58,2.02,7.26,4.35,2,2.77,1.99,6.45,1.91,9.87Z"/>
  <path d="M1495.43,172.58c-1.52,6.28-6.7,11.53-12.95,13.13-7.43,1.91-16.36-1.82-19.07-9-3.81-10.1-1.76-21.17,10.16-25.42,5.78-2.06,12.64.07,17.03,4.36,4.39,4.29,6.28,10.96,4.84,16.92Z"/>
  <path d="M1646.2,165.98c-.1,4.17-.25,8.51-2.23,12.19-1.74,3.24-4.82,5.67-8.26,6.98-6.79,2.58-15.06.64-19.99-4.68-4.94-5.33-6.24-13.72-3.15-20.29.15-.32.31-.63.48-.94,3.12-5.69,9.25-9.04,15.74-8.78,2.79.11,5.56.55,8.25,1.31,2.77.79,5.58,2.02,7.26,4.35,2,2.77,1.99,6.45,1.91,9.87Z"/>
  <path d="M1798.06,172.58c-1.52,6.28-6.7,11.53-12.95,13.13-7.43,1.91-16.36-1.82-19.07-9-3.81-10.1-1.76-21.17,10.16-25.42,5.78-2.06,12.64.07,17.03,4.36,4.39,4.29,6.28,10.96,4.84,16.92Z"/>
  <path d="M1948.83,165.98c-.1,4.17-.25,8.51-2.23,12.19-1.74,3.24-4.82,5.67-8.26,6.98-6.79,2.58-15.06.64-19.99-4.68-4.94-5.33-6.24-13.72-3.15-20.29.15-.32.31-.63.48-.94,3.12-5.69,9.25-9.04,15.74-8.78,2.79.11,5.56.55,8.25,1.31,2.77.79,5.58,2.02,7.26,4.35,2,2.77,1.99,6.45,1.91,9.87Z"/>
  <path d="M2100.69,172.58c-1.52,6.28-6.7,11.53-12.95,13.13-7.43,1.91-16.36-1.82-19.07-9-3.81-10.1-1.76-21.17,10.16-25.42,5.78-2.06,12.64.07,17.03,4.36,4.39,4.29,6.28,10.96,4.84,16.92Z"/>
  <path d="M57.44,298.06c-1.52,6.28-6.7,11.53-12.95,13.13-7.43,1.91-16.36-1.82-19.07-9-3.81-10.1-1.76-21.17,10.16-25.42,5.78-2.06,12.64.07,17.03,4.36,4.39,4.29,6.28,10.96,4.84,16.92Z"/>
  <path d="M208.21,291.46c-.1,4.17-.25,8.51-2.23,12.19-1.74,3.24-4.82,5.67-8.26,6.98-6.79,2.58-15.06.64-19.99-4.68-4.94-5.33-6.24-13.72-3.15-20.29.15-.32.31-.63.48-.94,3.12-5.69,9.25-9.04,15.74-8.78,2.79.11,5.56.55,8.25,1.31,2.77.79,5.58,2.02,7.26,4.35,2,2.77,1.99,6.45,1.91,9.87Z"/>
  <path d="M360.07,298.06c-1.52,6.28-6.7,11.53-12.95,13.13-7.43,1.91-16.36-1.82-19.07-9-3.81-10.1-1.76-21.17,10.16-25.42,5.78-2.06,12.64.07,17.03,4.36,4.39,4.29,6.28,10.96,4.84,16.92Z"/>
  <path d="M510.84,291.46c-.1,4.17-.25,8.51-2.23,12.19-1.74,3.24-4.82,5.67-8.26,6.98-6.79,2.58-15.06.64-19.99-4.68-4.94-5.33-6.24-13.72-3.15-20.29.15-.32.31-.63.48-.94,3.12-5.69,9.25-9.04,15.74-8.78,2.79.11,5.56.55,8.25,1.31,2.77.79,5.58,2.02,7.26,4.35,2,2.77,1.99,6.45,1.91,9.87Z"/>
  <path d="M662.7,298.06c-1.52,6.28-6.7,11.53-12.95,13.13-7.43,1.91-16.36-1.82-19.07-9-3.81-10.1-1.76-21.17,10.16-25.42,5.78-2.06,12.64.07,17.03,4.36,4.39,4.29,6.28,10.96,4.84,16.92Z"/>
  <path d="M813.47,291.46c-.1,4.17-.25,8.51-2.23,12.19-1.74,3.24-4.82,5.67-8.26,6.98-6.79,2.58-15.06.64-19.99-4.68-4.94-5.33-6.24-13.72-3.15-20.29.15-.32.31-.63.48-.94,3.12-5.69,9.25-9.04,15.74-8.78,2.79.11,5.56.55,8.25,1.31,2.77.79,5.58,2.02,7.26,4.35,2,2.77,1.99,6.45,1.91,9.87Z"/>
  <path d="M965.33,298.06c-1.52,6.28-6.7,11.53-12.95,13.13-7.43,1.91-16.36-1.82-19.07-9-3.81-10.1-1.76-21.17,10.16-25.42,5.78-2.06,12.64.07,17.03,4.36,4.39,4.29,6.28,10.96,4.84,16.92Z"/>
  <path d="M1116.1,291.46c-.1,4.17-.25,8.51-2.23,12.19-1.74,3.24-4.82,5.67-8.26,6.98-6.79,2.58-15.06.64-19.99-4.68-4.94-5.33-6.24-13.72-3.15-20.29.15-.32.31-.63.48-.94,3.12-5.69,9.25-9.04,15.74-8.78,2.79.11,5.56.55,8.25,1.31,2.77.79,5.58,2.02,7.26,4.35,2,2.77,1.99,6.45,1.91,9.87Z"/>
  <path d="M1267.96,298.06c-1.52,6.28-6.7,11.53-12.95,13.13-7.43,1.91-16.36-1.82-19.07-9-3.81-10.1-1.76-21.17,10.16-25.42,5.78-2.06,12.64.07,17.03,4.36,4.39,4.29,6.28,10.96,4.84,16.92Z"/>
  <path d="M1418.73,291.46c-.1,4.17-.25,8.51-2.23,12.19-1.74,3.24-4.82,5.67-8.26,6.98-6.79,2.58-15.06.64-19.99-4.68-4.94-5.33-6.24-13.72-3.15-20.29.15-.32.31-.63.48-.94,3.12-5.69,9.25-9.04,15.74-8.78,2.79.11,5.56.55,8.25,1.31,2.77.79,5.58,2.02,7.26,4.35,2,2.77,1.99,6.45,1.91,9.87Z"/>
  <path d="M1570.59,298.06c-1.52,6.28-6.7,11.53-12.95,13.13-7.43,1.91-16.36-1.82-19.07-9-3.81-10.1-1.76-21.17,10.16-25.42,5.78-2.06,12.64.07,17.03,4.36,4.39,4.29,6.28,10.96,4.84,16.92Z"/>
  <path d="M1721.36,291.46c-.1,4.17-.25,8.51-2.23,12.19-1.74,3.24-4.82,5.67-8.26,6.98-6.79,2.58-15.06.64-19.99-4.68-4.94-5.33-6.24-13.72-3.15-20.29.15-.32.31-.63.48-.94,3.12-5.69,9.25-9.04,15.74-8.78,2.79.11,5.56.55,8.25,1.31,2.77.79,5.58,2.02,7.26,4.35,2,2.77,1.99,6.45,1.91,9.87Z"/>
  <path d="M1873.22,298.06c-1.52,6.28-6.7,11.53-12.95,13.13-7.43,1.91-16.36-1.82-19.07-9-3.81-10.1-1.76-21.17,10.16-25.42,5.78-2.06,12.64.07,17.03,4.36,4.39,4.29,6.28,10.96,4.84,16.92Z"/>
  <path d="M2023.99,291.46c-.1,4.17-.25,8.51-2.23,12.19-1.74,3.24-4.82,5.67-8.26,6.98-6.79,2.58-15.06.64-19.99-4.68-4.94-5.33-6.24-13.72-3.15-20.29.15-.32.31-.63.48-.94,3.12-5.69,9.25-9.04,15.74-8.78,2.79.11,5.56.55,8.25,1.31,2.77.79,5.58,2.02,7.26,4.35,2,2.77,1.99,6.45,1.91,9.87Z"/>
  <path d="M2175.85,298.06c-1.52,6.28-6.7,11.53-12.95,13.13-7.43,1.91-16.36-1.82-19.07-9-3.81-10.1-1.76-21.17,10.16-25.42,5.78-2.06,12.64.07,17.03,4.36,4.39,4.29,6.28,10.96,4.84,16.92Z"/>
  <path d="M133.05,416.93c-.1,4.17-.25,8.51-2.23,12.19-1.74,3.24-4.82,5.67-8.26,6.98-6.79,2.58-15.06.64-19.99-4.68-4.94-5.33-6.24-13.72-3.15-20.29.15-.32.31-.63.48-.94,3.12-5.69,9.25-9.04,15.74-8.78,2.79.11,5.56.55,8.25,1.31,2.77.79,5.58,2.02,7.26,4.35,2,2.77,1.99,6.45,1.91,9.87Z"/>
  <path d="M284.91,423.54c-1.52,6.28-6.7,11.53-12.95,13.13-7.43,1.91-16.36-1.82-19.07-9-3.81-10.1-1.76-21.17,10.16-25.42,5.78-2.06,12.64.07,17.03,4.36,4.39,4.29,6.28,10.96,4.84,16.92Z"/>
  <path d="M435.68,416.93c-.1,4.17-.25,8.51-2.23,12.19-1.74,3.24-4.82,5.67-8.26,6.98-6.79,2.58-15.06.64-19.99-4.68-4.94-5.33-6.24-13.72-3.15-20.29.15-.32.31-.63.48-.94,3.12-5.69,9.25-9.04,15.74-8.78,2.79.11,5.56.55,8.25,1.31,2.77.79,5.58,2.02,7.26,4.35,2,2.77,1.99,6.45,1.91,9.87Z"/>
  <path d="M587.54,423.54c-1.52,6.28-6.7,11.53-12.95,13.13-7.43,1.91-16.36-1.82-19.07-9-3.81-10.1-1.76-21.17,10.16-25.42,5.78-2.06,12.64.07,17.03,4.36,4.39,4.29,6.28,10.96,4.84,16.92Z"/>
  <path d="M738.31,416.93c-.1,4.17-.25,8.51-2.23,12.19-1.74,3.24-4.82,5.67-8.26,6.98-6.79,2.58-15.06.64-19.99-4.68-4.94-5.33-6.24-13.72-3.15-20.29.15-.32.31-.63.48-.94,3.12-5.69,9.25-9.04,15.74-8.78,2.79.11,5.56.55,8.25,1.31,2.77.79,5.58,2.02,7.26,4.35,2,2.77,1.99,6.45,1.91,9.87Z"/>
  <path d="M890.17,423.54c-1.52,6.28-6.7,11.53-12.95,13.13-7.43,1.91-16.36-1.82-19.07-9-3.81-10.1-1.76-21.17,10.16-25.42,5.78-2.06,12.64.07,17.03,4.36,4.39,4.29,6.28,10.96,4.84,16.92Z"/>
  <path d="M1040.94,416.93c-.1,4.17-.25,8.51-2.23,12.19-1.74,3.24-4.82,5.67-8.26,6.98-6.79,2.58-15.06.64-19.99-4.68-4.94-5.33-6.24-13.72-3.15-20.29.15-.32.31-.63.48-.94,3.12-5.69,9.25-9.04,15.74-8.78,2.79.11,5.56.55,8.25,1.31,2.77.79,5.58,2.02,7.26,4.35,2,2.77,1.99,6.45,1.91,9.87Z"/>
  <path d="M1192.8,423.54c-1.52,6.28-6.7,11.53-12.95,13.13-7.43,1.91-16.36-1.82-19.07-9-3.81-10.1-1.76-21.17,10.16-25.42,5.78-2.06,12.64.07,17.03,4.36,4.39,4.29,6.28,10.96,4.84,16.92Z"/>
  <path d="M1343.57,416.93c-.1,4.17-.25,8.51-2.23,12.19-1.74,3.24-4.82,5.67-8.26,6.98-6.79,2.58-15.06.64-19.99-4.68-4.94-5.33-6.24-13.72-3.15-20.29.15-.32.31-.63.48-.94,3.12-5.69,9.25-9.04,15.74-8.78,2.79.11,5.56.55,8.25,1.31,2.77.79,5.58,2.02,7.26,4.35,2,2.77,1.99,6.45,1.91,9.87Z"/>
  <path d="M1495.43,423.54c-1.52,6.28-6.7,11.53-12.95,13.13-7.43,1.91-16.36-1.82-19.07-9-3.81-10.1-1.76-21.17,10.16-25.42,5.78-2.06,12.64.07,17.03,4.36,4.39,4.29,6.28,10.96,4.84,16.92Z"/>
  <path d="M1646.2,416.93c-.1,4.17-.25,8.51-2.23,12.19-1.74,3.24-4.82,5.67-8.26,6.98-6.79,2.58-15.06.64-19.99-4.68-4.94-5.33-6.24-13.72-3.15-20.29.15-.32.31-.63.48-.94,3.12-5.69,9.25-9.04,15.74-8.78,2.79.11,5.56.55,8.25,1.31,2.77.79,5.58,2.02,7.26,4.35,2,2.77,1.99,6.45,1.91,9.87Z"/>
  <path d="M1798.06,423.54c-1.52,6.28-6.7,11.53-12.95,13.13-7.43,1.91-16.36-1.82-19.07-9-3.81-10.1-1.76-21.17,10.16-25.42,5.78-2.06,12.64.07,17.03,4.36,4.39,4.29,6.28,10.96,4.84,16.92Z"/>
  <path d="M1948.83,416.93c-.1,4.17-.25,8.51-2.23,12.19-1.74,3.24-4.82,5.67-8.26,6.98-6.79,2.58-15.06.64-19.99-4.68-4.94-5.33-6.24-13.72-3.15-20.29.15-.32.31-.63.48-.94,3.12-5.69,9.25-9.04,15.74-8.78,2.79.11,5.56.55,8.25,1.31,2.77.79,5.58,2.02,7.26,4.35,2,2.77,1.99,6.45,1.91,9.87Z"/>
  <path d="M2100.69,423.54c-1.52,6.28-6.7,11.53-12.95,13.13-7.43,1.91-16.36-1.82-19.07-9-3.81-10.1-1.76-21.17,10.16-25.42,5.78-2.06,12.64.07,17.03,4.36,4.39,4.29,6.28,10.96,4.84,16.92Z"/>
  <path d="M57.44,549.01c-1.52,6.28-6.7,11.53-12.95,13.13-7.43,1.91-16.36-1.82-19.07-9-3.81-10.1-1.76-21.17,10.16-25.42,5.78-2.06,12.64.07,17.03,4.36,4.39,4.29,6.28,10.96,4.84,16.92Z"/>
  <path d="M208.21,542.41c-.1,4.17-.25,8.51-2.23,12.19-1.74,3.24-4.82,5.67-8.26,6.98-6.79,2.58-15.06.64-19.99-4.68-4.94-5.33-6.24-13.72-3.15-20.29.15-.32.31-.63.48-.94,3.12-5.69,9.25-9.04,15.74-8.78,2.79.11,5.56.55,8.25,1.31,2.77.79,5.58,2.02,7.26,4.35,2,2.77,1.99,6.45,1.91,9.87Z"/>
  <path d="M360.07,549.01c-1.52,6.28-6.7,11.53-12.95,13.13-7.43,1.91-16.36-1.82-19.07-9-3.81-10.1-1.76-21.17,10.16-25.42,5.78-2.06,12.64.07,17.03,4.36,4.39,4.29,6.28,10.96,4.84,16.92Z"/>
  <path d="M510.84,542.41c-.1,4.17-.25,8.51-2.23,12.19-1.74,3.24-4.82,5.67-8.26,6.98-6.79,2.58-15.06.64-19.99-4.68-4.94-5.33-6.24-13.72-3.15-20.29.15-.32.31-.63.48-.94,3.12-5.69,9.25-9.04,15.74-8.78,2.79.11,5.56.55,8.25,1.31,2.77.79,5.58,2.02,7.26,4.35,2,2.77,1.99,6.45,1.91,9.87Z"/>
  <path d="M662.7,549.01c-1.52,6.28-6.7,11.53-12.95,13.13-7.43,1.91-16.36-1.82-19.07-9-3.81-10.1-1.76-21.17,10.16-25.42,5.78-2.06,12.64.07,17.03,4.36,4.39,4.29,6.28,10.96,4.84,16.92Z"/>
  <path d="M813.47,542.41c-.1,4.17-.25,8.51-2.23,12.19-1.74,3.24-4.82,5.67-8.26,6.98-6.79,2.58-15.06.64-19.99-4.68-4.94-5.33-6.24-13.72-3.15-20.29.15-.32.31-.63.48-.94,3.12-5.69,9.25-9.04,15.74-8.78,2.79.11,5.56.55,8.25,1.31,2.77.79,5.58,2.02,7.26,4.35,2,2.77,1.99,6.45,1.91,9.87Z"/>
  <path d="M965.33,549.01c-1.52,6.28-6.7,11.53-12.95,13.13-7.43,1.91-16.36-1.82-19.07-9-3.81-10.1-1.76-21.17,10.16-25.42,5.78-2.06,12.64.07,17.03,4.36,4.39,4.29,6.28,10.96,4.84,16.92Z"/>
  <path d="M1116.1,542.41c-.1,4.17-.25,8.51-2.23,12.19-1.74,3.24-4.82,5.67-8.26,6.98-6.79,2.58-15.06.64-19.99-4.68-4.94-5.33-6.24-13.72-3.15-20.29.15-.32.31-.63.48-.94,3.12-5.69,9.25-9.04,15.74-8.78,2.79.11,5.56.55,8.25,1.31,2.77.79,5.58,2.02,7.26,4.35,2,2.77,1.99,6.45,1.91,9.87Z"/>
  <path d="M1267.96,549.01c-1.52,6.28-6.7,11.53-12.95,13.13-7.43,1.91-16.36-1.82-19.07-9-3.81-10.1-1.76-21.17,10.16-25.42,5.78-2.06,12.64.07,17.03,4.36,4.39,4.29,6.28,10.96,4.84,16.92Z"/>
  <path d="M1418.73,542.41c-.1,4.17-.25,8.51-2.23,12.19-1.74,3.24-4.82,5.67-8.26,6.98-6.79,2.58-15.06.64-19.99-4.68-4.94-5.33-6.24-13.72-3.15-20.29.15-.32.31-.63.48-.94,3.12-5.69,9.25-9.04,15.74-8.78,2.79.11,5.56.55,8.25,1.31,2.77.79,5.58,2.02,7.26,4.35,2,2.77,1.99,6.45,1.91,9.87Z"/>
  <path d="M1570.59,549.01c-1.52,6.28-6.7,11.53-12.95,13.13-7.43,1.91-16.36-1.82-19.07-9-3.81-10.1-1.76-21.17,10.16-25.42,5.78-2.06,12.64.07,17.03,4.36,4.39,4.29,6.28,10.96,4.84,16.92Z"/>
  <path d="M1721.36,542.41c-.1,4.17-.25,8.51-2.23,12.19-1.74,3.24-4.82,5.67-8.26,6.98-6.79,2.58-15.06.64-19.99-4.68-4.94-5.33-6.24-13.72-3.15-20.29.15-.32.31-.63.48-.94,3.12-5.69,9.25-9.04,15.74-8.78,2.79.11,5.56.55,8.25,1.31,2.77.79,5.58,2.02,7.26,4.35,2,2.77,1.99,6.45,1.91,9.87Z"/>
  <path d="M1873.22,549.01c-1.52,6.28-6.7,11.53-12.95,13.13-7.43,1.91-16.36-1.82-19.07-9-3.81-10.1-1.76-21.17,10.16-25.42,5.78-2.06,12.64.07,17.03,4.36,4.39,4.29,6.28,10.96,4.84,16.92Z"/>
  <path d="M2023.99,542.41c-.1,4.17-.25,8.51-2.23,12.19-1.74,3.24-4.82,5.67-8.26,6.98-6.79,2.58-15.06.64-19.99-4.68-4.94-5.33-6.24-13.72-3.15-20.29.15-.32.31-.63.48-.94,3.12-5.69,9.25-9.04,15.74-8.78,2.79.11,5.56.55,8.25,1.31,2.77.79,5.58,2.02,7.26,4.35,2,2.77,1.99,6.45,1.91,9.87Z"/>
  <path d="M2175.85,549.01c-1.52,6.28-6.7,11.53-12.95,13.13-7.43,1.91-16.36-1.82-19.07-9-3.81-10.1-1.76-21.17,10.16-25.42,5.78-2.06,12.64.07,17.03,4.36,4.39,4.29,6.28,10.96,4.84,16.92Z"/>
  <path d="M133.05,667.89c-.1,4.17-.25,8.51-2.23,12.19-1.74,3.24-4.82,5.67-8.26,6.98-6.79,2.58-15.06.64-19.99-4.68-4.94-5.33-6.24-13.72-3.15-20.29.15-.32.31-.63.48-.94,3.12-5.69,9.25-9.04,15.74-8.78,2.79.11,5.56.55,8.25,1.31,2.77.79,5.58,2.02,7.26,4.35,2,2.77,1.99,6.45,1.91,9.87Z"/>
  <path d="M284.91,674.49c-1.52,6.28-6.7,11.53-12.95,13.13-7.43,1.91-16.36-1.82-19.07-9-3.81-10.1-1.76-21.17,10.16-25.42,5.78-2.06,12.64.07,17.03,4.36,4.39,4.29,6.28,10.96,4.84,16.92Z"/>
  <path d="M435.68,667.89c-.1,4.17-.25,8.51-2.23,12.19-1.74,3.24-4.82,5.67-8.26,6.98-6.79,2.58-15.06.64-19.99-4.68-4.94-5.33-6.24-13.72-3.15-20.29.15-.32.31-.63.48-.94,3.12-5.69,9.25-9.04,15.74-8.78,2.79.11,5.56.55,8.25,1.31,2.77.79,5.58,2.02,7.26,4.35,2,2.77,1.99,6.45,1.91,9.87Z"/>
  <path d="M587.54,674.49c-1.52,6.28-6.7,11.53-12.95,13.13-7.43,1.91-16.36-1.82-19.07-9-3.81-10.1-1.76-21.17,10.16-25.42,5.78-2.06,12.64.07,17.03,4.36,4.39,4.29,6.28,10.96,4.84,16.92Z"/>
  <path d="M738.31,667.89c-.1,4.17-.25,8.51-2.23,12.19-1.74,3.24-4.82,5.67-8.26,6.98-6.79,2.58-15.06.64-19.99-4.68-4.94-5.33-6.24-13.72-3.15-20.29.15-.32.31-.63.48-.94,3.12-5.69,9.25-9.04,15.74-8.78,2.79.11,5.56.55,8.25,1.31,2.77.79,5.58,2.02,7.26,4.35,2,2.77,1.99,6.45,1.91,9.87Z"/>
  <path d="M890.17,674.49c-1.52,6.28-6.7,11.53-12.95,13.13-7.43,1.91-16.36-1.82-19.07-9-3.81-10.1-1.76-21.17,10.16-25.42,5.78-2.06,12.64.07,17.03,4.36,4.39,4.29,6.28,10.96,4.84,16.92Z"/>
  <path d="M1040.94,667.89c-.1,4.17-.25,8.51-2.23,12.19-1.74,3.24-4.82,5.67-8.26,6.98-6.79,2.58-15.06.64-19.99-4.68-4.94-5.33-6.24-13.72-3.15-20.29.15-.32.31-.63.48-.94,3.12-5.69,9.25-9.04,15.74-8.78,2.79.11,5.56.55,8.25,1.31,2.77.79,5.58,2.02,7.26,4.35,2,2.77,1.99,6.45,1.91,9.87Z"/>
  <path d="M1192.8,674.49c-1.52,6.28-6.7,11.53-12.95,13.13-7.43,1.91-16.36-1.82-19.07-9-3.81-10.1-1.76-21.17,10.16-25.42,5.78-2.06,12.64.07,17.03,4.36,4.39,4.29,6.28,10.96,4.84,16.92Z"/>
  <path d="M1343.57,667.89c-.1,4.17-.25,8.51-2.23,12.19-1.74,3.24-4.82,5.67-8.26,6.98-6.79,2.58-15.06.64-19.99-4.68-4.94-5.33-6.24-13.72-3.15-20.29.15-.32.31-.63.48-.94,3.12-5.69,9.25-9.04,15.74-8.78,2.79.11,5.56.55,8.25,1.31,2.77.79,5.58,2.02,7.26,4.35,2,2.77,1.99,6.45,1.91,9.87Z"/>
  <path d="M1495.43,674.49c-1.52,6.28-6.7,11.53-12.95,13.13-7.43,1.91-16.36-1.82-19.07-9-3.81-10.1-1.76-21.17,10.16-25.42,5.78-2.06,12.64.07,17.03,4.36,4.39,4.29,6.28,10.96,4.84,16.92Z"/>
  <path d="M1646.2,667.89c-.1,4.17-.25,8.51-2.23,12.19-1.74,3.24-4.82,5.67-8.26,6.98-6.79,2.58-15.06.64-19.99-4.68-4.94-5.33-6.24-13.72-3.15-20.29.15-.32.31-.63.48-.94,3.12-5.69,9.25-9.04,15.74-8.78,2.79.11,5.56.55,8.25,1.31,2.77.79,5.58,2.02,7.26,4.35,2,2.77,1.99,6.45,1.91,9.87Z"/>
  <path d="M1798.06,674.49c-1.52,6.28-6.7,11.53-12.95,13.13-7.43,1.91-16.36-1.82-19.07-9-3.81-10.1-1.76-21.17,10.16-25.42,5.78-2.06,12.64.07,17.03,4.36,4.39,4.29,6.28,10.96,4.84,16.92Z"/>
  <path d="M1948.83,667.89c-.1,4.17-.25,8.51-2.23,12.19-1.74,3.24-4.82,5.67-8.26,6.98-6.79,2.58-15.06.64-19.99-4.68-4.94-5.33-6.24-13.72-3.15-20.29.15-.32.31-.63.48-.94,3.12-5.69,9.25-9.04,15.74-8.78,2.79.11,5.56.55,8.25,1.31,2.77.79,5.58,2.02,7.26,4.35,2,2.77,1.99,6.45,1.91,9.87Z"/>
  <path d="M2100.69,674.49c-1.52,6.28-6.7,11.53-12.95,13.13-7.43,1.91-16.36-1.82-19.07-9-3.81-10.1-1.76-21.17,10.16-25.42,5.78-2.06,12.64.07,17.03,4.36,4.39,4.29,6.28,10.96,4.84,16.92Z"/>
  <path d="M57.44,799.96c-1.52,6.28-6.7,11.53-12.95,13.13-7.43,1.91-16.36-1.82-19.07-9-3.81-10.1-1.76-21.17,10.16-25.42,5.78-2.06,12.64.07,17.03,4.36,4.39,4.29,6.28,10.96,4.84,16.92Z"/>
  <path d="M208.21,793.36c-.1,4.17-.25,8.51-2.23,12.19-1.74,3.24-4.82,5.67-8.26,6.98-6.79,2.58-15.06.64-19.99-4.68-4.94-5.33-6.24-13.72-3.15-20.29.15-.32.31-.63.48-.94,3.12-5.69,9.25-9.04,15.74-8.78,2.79.11,5.56.55,8.25,1.31,2.77.79,5.58,2.02,7.26,4.35,2,2.77,1.99,6.45,1.91,9.87Z"/>
  <path d="M360.07,799.96c-1.52,6.28-6.7,11.53-12.95,13.13-7.43,1.91-16.36-1.82-19.07-9-3.81-10.1-1.76-21.17,10.16-25.42,5.78-2.06,12.64.07,17.03,4.36,4.39,4.29,6.28,10.96,4.84,16.92Z"/>
  <path d="M510.84,793.36c-.1,4.17-.25,8.51-2.23,12.19-1.74,3.24-4.82,5.67-8.26,6.98-6.79,2.58-15.06.64-19.99-4.68-4.94-5.33-6.24-13.72-3.15-20.29.15-.32.31-.63.48-.94,3.12-5.69,9.25-9.04,15.74-8.78,2.79.11,5.56.55,8.25,1.31,2.77.79,5.58,2.02,7.26,4.35,2,2.77,1.99,6.45,1.91,9.87Z"/>
  <path d="M662.7,799.96c-1.52,6.28-6.7,11.53-12.95,13.13-7.43,1.91-16.36-1.82-19.07-9-3.81-10.1-1.76-21.17,10.16-25.42,5.78-2.06,12.64.07,17.03,4.36,4.39,4.29,6.28,10.96,4.84,16.92Z"/>
  <path d="M813.47,793.36c-.1,4.17-.25,8.51-2.23,12.19-1.74,3.24-4.82,5.67-8.26,6.98-6.79,2.58-15.06.64-19.99-4.68-4.94-5.33-6.24-13.72-3.15-20.29.15-.32.31-.63.48-.94,3.12-5.69,9.25-9.04,15.74-8.78,2.79.11,5.56.55,8.25,1.31,2.77.79,5.58,2.02,7.26,4.35,2,2.77,1.99,6.45,1.91,9.87Z"/>
  <path d="M965.33,799.96c-1.52,6.28-6.7,11.53-12.95,13.13-7.43,1.91-16.36-1.82-19.07-9-3.81-10.1-1.76-21.17,10.16-25.42,5.78-2.06,12.64.07,17.03,4.36,4.39,4.29,6.28,10.96,4.84,16.92Z"/>
  <path d="M1116.1,793.36c-.1,4.17-.25,8.51-2.23,12.19-1.74,3.24-4.82,5.67-8.26,6.98-6.79,2.58-15.06.64-19.99-4.68-4.94-5.33-6.24-13.72-3.15-20.29.15-.32.31-.63.48-.94,3.12-5.69,9.25-9.04,15.74-8.78,2.79.11,5.56.55,8.25,1.31,2.77.79,5.58,2.02,7.26,4.35,2,2.77,1.99,6.45,1.91,9.87Z"/>
  <path d="M1267.96,799.96c-1.52,6.28-6.7,11.53-12.95,13.13-7.43,1.91-16.36-1.82-19.07-9-3.81-10.1-1.76-21.17,10.16-25.42,5.78-2.06,12.64.07,17.03,4.36,4.39,4.29,6.28,10.96,4.84,16.92Z"/>
  <path d="M1418.73,793.36c-.1,4.17-.25,8.51-2.23,12.19-1.74,3.24-4.82,5.67-8.26,6.98-6.79,2.58-15.06.64-19.99-4.68-4.94-5.33-6.24-13.72-3.15-20.29.15-.32.31-.63.48-.94,3.12-5.69,9.25-9.04,15.74-8.78,2.79.11,5.56.55,8.25,1.31,2.77.79,5.58,2.02,7.26,4.35,2,2.77,1.99,6.45,1.91,9.87Z"/>
  <path d="M1570.59,799.96c-1.52,6.28-6.7,11.53-12.95,13.13-7.43,1.91-16.36-1.82-19.07-9-3.81-10.1-1.76-21.17,10.16-25.42,5.78-2.06,12.64.07,17.03,4.36,4.39,4.29,6.28,10.96,4.84,16.92Z"/>
  <path d="M1721.36,793.36c-.1,4.17-.25,8.51-2.23,12.19-1.74,3.24-4.82,5.67-8.26,6.98-6.79,2.58-15.06.64-19.99-4.68-4.94-5.33-6.24-13.72-3.15-20.29.15-.32.31-.63.48-.94,3.12-5.69,9.25-9.04,15.74-8.78,2.79.11,5.56.55,8.25,1.31,2.77.79,5.58,2.02,7.26,4.35,2,2.77,1.99,6.45,1.91,9.87Z"/>
  <path d="M1873.22,799.96c-1.52,6.28-6.7,11.53-12.95,13.13-7.43,1.91-16.36-1.82-19.07-9-3.81-10.1-1.76-21.17,10.16-25.42,5.78-2.06,12.64.07,17.03,4.36,4.39,4.29,6.28,10.96,4.84,16.92Z"/>
  <path d="M2023.99,793.36c-.1,4.17-.25,8.51-2.23,12.19-1.74,3.24-4.82,5.67-8.26,6.98-6.79,2.58-15.06.64-19.99-4.68-4.94-5.33-6.24-13.72-3.15-20.29.15-.32.31-.63.48-.94,3.12-5.69,9.25-9.04,15.74-8.78,2.79.11,5.56.55,8.25,1.31,2.77.79,5.58,2.02,7.26,4.35,2,2.77,1.99,6.45,1.91,9.87Z"/>
  <path d="M2175.85,799.96c-1.52,6.28-6.7,11.53-12.95,13.13-7.43,1.91-16.36-1.82-19.07-9-3.81-10.1-1.76-21.17,10.16-25.42,5.78-2.06,12.64.07,17.03,4.36,4.39,4.29,6.28,10.96,4.84,16.92Z"/>
  <path d="M133.05,918.84c-.1,4.17-.25,8.51-2.23,12.19-1.74,3.24-4.82,5.67-8.26,6.98-6.79,2.58-15.06.64-19.99-4.68-4.94-5.33-6.24-13.72-3.15-20.29.15-.32.31-.63.48-.94,3.12-5.69,9.25-9.04,15.74-8.78,2.79.11,5.56.55,8.25,1.31,2.77.79,5.58,2.02,7.26,4.35,2,2.77,1.99,6.45,1.91,9.87Z"/>
  <path d="M284.91,925.44c-1.52,6.28-6.7,11.53-12.95,13.13-7.43,1.91-16.36-1.82-19.07-9-3.81-10.1-1.76-21.17,10.16-25.42,5.78-2.06,12.64.07,17.03,4.36,4.39,4.29,6.28,10.96,4.84,16.92Z"/>
  <path d="M435.68,918.84c-.1,4.17-.25,8.51-2.23,12.19-1.74,3.24-4.82,5.67-8.26,6.98-6.79,2.58-15.06.64-19.99-4.68-4.94-5.33-6.24-13.72-3.15-20.29.15-.32.31-.63.48-.94,3.12-5.69,9.25-9.04,15.74-8.78,2.79.11,5.56.55,8.25,1.31,2.77.79,5.58,2.02,7.26,4.35,2,2.77,1.99,6.45,1.91,9.87Z"/>
  <path d="M587.54,925.44c-1.52,6.28-6.7,11.53-12.95,13.13-7.43,1.91-16.36-1.82-19.07-9-3.81-10.1-1.76-21.17,10.16-25.42,5.78-2.06,12.64.07,17.03,4.36,4.39,4.29,6.28,10.96,4.84,16.92Z"/>
  <path d="M738.31,918.84c-.1,4.17-.25,8.51-2.23,12.19-1.74,3.24-4.82,5.67-8.26,6.98-6.79,2.58-15.06.64-19.99-4.68-4.94-5.33-6.24-13.72-3.15-20.29.15-.32.31-.63.48-.94,3.12-5.69,9.25-9.04,15.74-8.78,2.79.11,5.56.55,8.25,1.31,2.77.79,5.58,2.02,7.26,4.35,2,2.77,1.99,6.45,1.91,9.87Z"/>
  <path d="M890.17,925.44c-1.52,6.28-6.7,11.53-12.95,13.13-7.43,1.91-16.36-1.82-19.07-9-3.81-10.1-1.76-21.17,10.16-25.42,5.78-2.06,12.64.07,17.03,4.36,4.39,4.29,6.28,10.96,4.84,16.92Z"/>
  <path d="M1040.94,918.84c-.1,4.17-.25,8.51-2.23,12.19-1.74,3.24-4.82,5.67-8.26,6.98-6.79,2.58-15.06.64-19.99-4.68-4.94-5.33-6.24-13.72-3.15-20.29.15-.32.31-.63.48-.94,3.12-5.69,9.25-9.04,15.74-8.78,2.79.11,5.56.55,8.25,1.31,2.77.79,5.58,2.02,7.26,4.35,2,2.77,1.99,6.45,1.91,9.87Z"/>
  <path d="M1192.8,925.44c-1.52,6.28-6.7,11.53-12.95,13.13-7.43,1.91-16.36-1.82-19.07-9-3.81-10.1-1.76-21.17,10.16-25.42,5.78-2.06,12.64.07,17.03,4.36,4.39,4.29,6.28,10.96,4.84,16.92Z"/>
  <path d="M1343.57,918.84c-.1,4.17-.25,8.51-2.23,12.19-1.74,3.24-4.82,5.67-8.26,6.98-6.79,2.58-15.06.64-19.99-4.68-4.94-5.33-6.24-13.72-3.15-20.29.15-.32.31-.63.48-.94,3.12-5.69,9.25-9.04,15.74-8.78,2.79.11,5.56.55,8.25,1.31,2.77.79,5.58,2.02,7.26,4.35,2,2.77,1.99,6.45,1.91,9.87Z"/>
  <path d="M1495.43,925.44c-1.52,6.28-6.7,11.53-12.95,13.13-7.43,1.91-16.36-1.82-19.07-9-3.81-10.1-1.76-21.17,10.16-25.42,5.78-2.06,12.64.07,17.03,4.36,4.39,4.29,6.28,10.96,4.84,16.92Z"/>
  <path d="M1646.2,918.84c-.1,4.17-.25,8.51-2.23,12.19-1.74,3.24-4.82,5.67-8.26,6.98-6.79,2.58-15.06.64-19.99-4.68-4.94-5.33-6.24-13.72-3.15-20.29.15-.32.31-.63.48-.94,3.12-5.69,9.25-9.04,15.74-8.78,2.79.11,5.56.55,8.25,1.31,2.77.79,5.58,2.02,7.26,4.35,2,2.77,1.99,6.45,1.91,9.87Z"/>
  <path d="M1798.06,925.44c-1.52,6.28-6.7,11.53-12.95,13.13-7.43,1.91-16.36-1.82-19.07-9-3.81-10.1-1.76-21.17,10.16-25.42,5.78-2.06,12.64.07,17.03,4.36,4.39,4.29,6.28,10.96,4.84,16.92Z"/>
  <path d="M1948.83,918.84c-.1,4.17-.25,8.51-2.23,12.19-1.74,3.24-4.82,5.67-8.26,6.98-6.79,2.58-15.06.64-19.99-4.68-4.94-5.33-6.24-13.72-3.15-20.29.15-.32.31-.63.48-.94,3.12-5.69,9.25-9.04,15.74-8.78,2.79.11,5.56.55,8.25,1.31,2.77.79,5.58,2.02,7.26,4.35,2,2.77,1.99,6.45,1.91,9.87Z"/>
  <path d="M2100.69,925.44c-1.52,6.28-6.7,11.53-12.95,13.13-7.43,1.91-16.36-1.82-19.07-9-3.81-10.1-1.76-21.17,10.16-25.42,5.78-2.06,12.64.07,17.03,4.36,4.39,4.29,6.28,10.96,4.84,16.92Z"/>
  <path d="M57.44,1050.92c-1.52,6.28-6.7,11.53-12.95,13.13-7.43,1.91-16.36-1.82-19.07-9-3.81-10.1-1.76-21.17,10.16-25.42,5.78-2.06,12.64.07,17.03,4.36,4.39,4.29,6.28,10.96,4.84,16.92Z"/>
  <path d="M208.21,1044.31c-.1,4.17-.25,8.51-2.23,12.19-1.74,3.24-4.82,5.67-8.26,6.98-6.79,2.58-15.06.64-19.99-4.68-4.94-5.33-6.24-13.72-3.15-20.29.15-.32.31-.63.48-.94,3.12-5.69,9.25-9.04,15.74-8.78,2.79.11,5.56.55,8.25,1.31,2.77.79,5.58,2.02,7.26,4.35,2,2.77,1.99,6.45,1.91,9.87Z"/>
  <path d="M360.07,1050.92c-1.52,6.28-6.7,11.53-12.95,13.13-7.43,1.91-16.36-1.82-19.07-9-3.81-10.1-1.76-21.17,10.16-25.42,5.78-2.06,12.64.07,17.03,4.36,4.39,4.29,6.28,10.96,4.84,16.92Z"/>
  <path d="M510.84,1044.31c-.1,4.17-.25,8.51-2.23,12.19-1.74,3.24-4.82,5.67-8.26,6.98-6.79,2.58-15.06.64-19.99-4.68-4.94-5.33-6.24-13.72-3.15-20.29.15-.32.31-.63.48-.94,3.12-5.69,9.25-9.04,15.74-8.78,2.79.11,5.56.55,8.25,1.31,2.77.79,5.58,2.02,7.26,4.35,2,2.77,1.99,6.45,1.91,9.87Z"/>
  <path d="M662.7,1050.92c-1.52,6.28-6.7,11.53-12.95,13.13-7.43,1.91-16.36-1.82-19.07-9-3.81-10.1-1.76-21.17,10.16-25.42,5.78-2.06,12.64.07,17.03,4.36,4.39,4.29,6.28,10.96,4.84,16.92Z"/>
  <path d="M813.47,1044.31c-.1,4.17-.25,8.51-2.23,12.19-1.74,3.24-4.82,5.67-8.26,6.98-6.79,2.58-15.06.64-19.99-4.68-4.94-5.33-6.24-13.72-3.15-20.29.15-.32.31-.63.48-.94,3.12-5.69,9.25-9.04,15.74-8.78,2.79.11,5.56.55,8.25,1.31,2.77.79,5.58,2.02,7.26,4.35,2,2.77,1.99,6.45,1.91,9.87Z"/>
  <path d="M965.33,1050.92c-1.52,6.28-6.7,11.53-12.95,13.13-7.43,1.91-16.36-1.82-19.07-9-3.81-10.1-1.76-21.17,10.16-25.42,5.78-2.06,12.64.07,17.03,4.36,4.39,4.29,6.28,10.96,4.84,16.92Z"/>
  <path d="M1116.1,1044.31c-.1,4.17-.25,8.51-2.23,12.19-1.74,3.24-4.82,5.67-8.26,6.98-6.79,2.58-15.06.64-19.99-4.68-4.94-5.33-6.24-13.72-3.15-20.29.15-.32.31-.63.48-.94,3.12-5.69,9.25-9.04,15.74-8.78,2.79.11,5.56.55,8.25,1.31,2.77.79,5.58,2.02,7.26,4.35,2,2.77,1.99,6.45,1.91,9.87Z"/>
  <path d="M1267.96,1050.92c-1.52,6.28-6.7,11.53-12.95,13.13-7.43,1.91-16.36-1.82-19.07-9-3.81-10.1-1.76-21.17,10.16-25.42,5.78-2.06,12.64.07,17.03,4.36,4.39,4.29,6.28,10.96,4.84,16.92Z"/>
  <path d="M1418.73,1044.31c-.1,4.17-.25,8.51-2.23,12.19-1.74,3.24-4.82,5.67-8.26,6.98-6.79,2.58-15.06.64-19.99-4.68-4.94-5.33-6.24-13.72-3.15-20.29.15-.32.31-.63.48-.94,3.12-5.69,9.25-9.04,15.74-8.78,2.79.11,5.56.55,8.25,1.31,2.77.79,5.58,2.02,7.26,4.35,2,2.77,1.99,6.45,1.91,9.87Z"/>
  <path d="M1570.59,1050.92c-1.52,6.28-6.7,11.53-12.95,13.13-7.43,1.91-16.36-1.82-19.07-9-3.81-10.1-1.76-21.17,10.16-25.42,5.78-2.06,12.64.07,17.03,4.36,4.39,4.29,6.28,10.96,4.84,16.92Z"/>
  <path d="M1721.36,1044.31c-.1,4.17-.25,8.51-2.23,12.19-1.74,3.24-4.82,5.67-8.26,6.98-6.79,2.58-15.06.64-19.99-4.68-4.94-5.33-6.24-13.72-3.15-20.29.15-.32.31-.63.48-.94,3.12-5.69,9.25-9.04,15.74-8.78,2.79.11,5.56.55,8.25,1.31,2.77.79,5.58,2.02,7.26,4.35,2,2.77,1.99,6.45,1.91,9.87Z"/>
  <path d="M1873.22,1050.92c-1.52,6.28-6.7,11.53-12.95,13.13-7.43,1.91-16.36-1.82-19.07-9-3.81-10.1-1.76-21.17,10.16-25.42,5.78-2.06,12.64.07,17.03,4.36,4.39,4.29,6.28,10.96,4.84,16.92Z"/>
  <path d="M2023.99,1044.31c-.1,4.17-.25,8.51-2.23,12.19-1.74,3.24-4.82,5.67-8.26,6.98-6.79,2.58-15.06.64-19.99-4.68-4.94-5.33-6.24-13.72-3.15-20.29.15-.32.31-.63.48-.94,3.12-5.69,9.25-9.04,15.74-8.78,2.79.11,5.56.55,8.25,1.31,2.77.79,5.58,2.02,7.26,4.35,2,2.77,1.99,6.45,1.91,9.87Z"/>
  <path d="M2175.85,1050.92c-1.52,6.28-6.7,11.53-12.95,13.13-7.43,1.91-16.36-1.82-19.07-9-3.81-10.1-1.76-21.17,10.16-25.42,5.78-2.06,12.64.07,17.03,4.36,4.39,4.29,6.28,10.96,4.84,16.92Z"/>
  <path d="M133.05,1169.79c-.1,4.17-.25,8.51-2.23,12.19-1.74,3.24-4.82,5.67-8.26,6.98-6.79,2.58-15.06.64-19.99-4.68-4.94-5.33-6.24-13.72-3.15-20.29.15-.32.31-.63.48-.94,3.12-5.69,9.25-9.04,15.74-8.78,2.79.11,5.56.55,8.25,1.31,2.77.79,5.58,2.02,7.26,4.35,2,2.77,1.99,6.45,1.91,9.87Z"/>
  <path d="M284.91,1176.39c-1.52,6.28-6.7,11.53-12.95,13.13-7.43,1.91-16.36-1.82-19.07-9-3.81-10.1-1.76-21.17,10.16-25.42,5.78-2.06,12.64.07,17.03,4.36,4.39,4.29,6.28,10.96,4.84,16.92Z"/>
  <path d="M435.68,1169.79c-.1,4.17-.25,8.51-2.23,12.19-1.74,3.24-4.82,5.67-8.26,6.98-6.79,2.58-15.06.64-19.99-4.68-4.94-5.33-6.24-13.72-3.15-20.29.15-.32.31-.63.48-.94,3.12-5.69,9.25-9.04,15.74-8.78,2.79.11,5.56.55,8.25,1.31,2.77.79,5.58,2.02,7.26,4.35,2,2.77,1.99,6.45,1.91,9.87Z"/>
  <path d="M587.54,1176.39c-1.52,6.28-6.7,11.53-12.95,13.13-7.43,1.91-16.36-1.82-19.07-9-3.81-10.1-1.76-21.17,10.16-25.42,5.78-2.06,12.64.07,17.03,4.36,4.39,4.29,6.28,10.96,4.84,16.92Z"/>
  <path d="M738.31,1169.79c-.1,4.17-.25,8.51-2.23,12.19-1.74,3.24-4.82,5.67-8.26,6.98-6.79,2.58-15.06.64-19.99-4.68-4.94-5.33-6.24-13.72-3.15-20.29.15-.32.31-.63.48-.94,3.12-5.69,9.25-9.04,15.74-8.78,2.79.11,5.56.55,8.25,1.31,2.77.79,5.58,2.02,7.26,4.35,2,2.77,1.99,6.45,1.91,9.87Z"/>
  <path d="M890.17,1176.39c-1.52,6.28-6.7,11.53-12.95,13.13-7.43,1.91-16.36-1.82-19.07-9-3.81-10.1-1.76-21.17,10.16-25.42,5.78-2.06,12.64.07,17.03,4.36,4.39,4.29,6.28,10.96,4.84,16.92Z"/>
  <path d="M1040.94,1169.79c-.1,4.17-.25,8.51-2.23,12.19-1.74,3.24-4.82,5.67-8.26,6.98-6.79,2.58-15.06.64-19.99-4.68-4.94-5.33-6.24-13.72-3.15-20.29.15-.32.31-.63.48-.94,3.12-5.69,9.25-9.04,15.74-8.78,2.79.11,5.56.55,8.25,1.31,2.77.79,5.58,2.02,7.26,4.35,2,2.77,1.99,6.45,1.91,9.87Z"/>
  <path d="M1192.8,1176.39c-1.52,6.28-6.7,11.53-12.95,13.13-7.43,1.91-16.36-1.82-19.07-9-3.81-10.1-1.76-21.17,10.16-25.42,5.78-2.06,12.64.07,17.03,4.36,4.39,4.29,6.28,10.96,4.84,16.92Z"/>
  <path d="M1343.57,1169.79c-.1,4.17-.25,8.51-2.23,12.19-1.74,3.24-4.82,5.67-8.26,6.98-6.79,2.58-15.06.64-19.99-4.68-4.94-5.33-6.24-13.72-3.15-20.29.15-.32.31-.63.48-.94,3.12-5.69,9.25-9.04,15.74-8.78,2.79.11,5.56.55,8.25,1.31,2.77.79,5.58,2.02,7.26,4.35,2,2.77,1.99,6.45,1.91,9.87Z"/>
  <path d="M1495.43,1176.39c-1.52,6.28-6.7,11.53-12.95,13.13-7.43,1.91-16.36-1.82-19.07-9-3.81-10.1-1.76-21.17,10.16-25.42,5.78-2.06,12.64.07,17.03,4.36,4.39,4.29,6.28,10.96,4.84,16.92Z"/>
  <path d="M1646.2,1169.79c-.1,4.17-.25,8.51-2.23,12.19-1.74,3.24-4.82,5.67-8.26,6.98-6.79,2.58-15.06.64-19.99-4.68-4.94-5.33-6.24-13.72-3.15-20.29.15-.32.31-.63.48-.94,3.12-5.69,9.25-9.04,15.74-8.78,2.79.11,5.56.55,8.25,1.31,2.77.79,5.58,2.02,7.26,4.35,2,2.77,1.99,6.45,1.91,9.87Z"/>
  <path d="M1798.06,1176.39c-1.52,6.28-6.7,11.53-12.95,13.13-7.43,1.91-16.36-1.82-19.07-9-3.81-10.1-1.76-21.17,10.16-25.42,5.78-2.06,12.64.07,17.03,4.36,4.39,4.29,6.28,10.96,4.84,16.92Z"/>
  <path d="M1948.83,1169.79c-.1,4.17-.25,8.51-2.23,12.19-1.74,3.24-4.82,5.67-8.26,6.98-6.79,2.58-15.06.64-19.99-4.68-4.94-5.33-6.24-13.72-3.15-20.29.15-.32.31-.63.48-.94,3.12-5.69,9.25-9.04,15.74-8.78,2.79.11,5.56.55,8.25,1.31,2.77.79,5.58,2.02,7.26,4.35,2,2.77,1.99,6.45,1.91,9.87Z"/>
  <path d="M2100.69,1176.39c-1.52,6.28-6.7,11.53-12.95,13.13-7.43,1.91-16.36-1.82-19.07-9-3.81-10.1-1.76-21.17,10.16-25.42,5.78-2.06,12.64.07,17.03,4.36,4.39,4.29,6.28,10.96,4.84,16.92Z"/>
  <path d="M57.44,1301.87c-1.52,6.28-6.7,11.53-12.95,13.13-7.43,1.91-16.36-1.82-19.07-9-3.81-10.1-1.76-21.17,10.16-25.42,5.78-2.06,12.64.07,17.03,4.36,4.39,4.29,6.28,10.96,4.84,16.92Z"/>
  <path d="M208.21,1295.26c-.1,4.17-.25,8.51-2.23,12.19-1.74,3.24-4.82,5.67-8.26,6.98-6.79,2.58-15.06.64-19.99-4.68-4.94-5.33-6.24-13.72-3.15-20.29.15-.32.31-.63.48-.94,3.12-5.69,9.25-9.04,15.74-8.78,2.79.11,5.56.55,8.25,1.31,2.77.79,5.58,2.02,7.26,4.35,2,2.77,1.99,6.45,1.91,9.87Z"/>
  <path d="M360.07,1301.87c-1.52,6.28-6.7,11.53-12.95,13.13-7.43,1.91-16.36-1.82-19.07-9-3.81-10.1-1.76-21.17,10.16-25.42,5.78-2.06,12.64.07,17.03,4.36,4.39,4.29,6.28,10.96,4.84,16.92Z"/>
  <path d="M510.84,1295.26c-.1,4.17-.25,8.51-2.23,12.19-1.74,3.24-4.82,5.67-8.26,6.98-6.79,2.58-15.06.64-19.99-4.68-4.94-5.33-6.24-13.72-3.15-20.29.15-.32.31-.63.48-.94,3.12-5.69,9.25-9.04,15.74-8.78,2.79.11,5.56.55,8.25,1.31,2.77.79,5.58,2.02,7.26,4.35,2,2.77,1.99,6.45,1.91,9.87Z"/>
  <path d="M662.7,1301.87c-1.52,6.28-6.7,11.53-12.95,13.13-7.43,1.91-16.36-1.82-19.07-9-3.81-10.1-1.76-21.17,10.16-25.42,5.78-2.06,12.64.07,17.03,4.36,4.39,4.29,6.28,10.96,4.84,16.92Z"/>
  <path d="M813.47,1295.26c-.1,4.17-.25,8.51-2.23,12.19-1.74,3.24-4.82,5.67-8.26,6.98-6.79,2.58-15.06.64-19.99-4.68-4.94-5.33-6.24-13.72-3.15-20.29.15-.32.31-.63.48-.94,3.12-5.69,9.25-9.04,15.74-8.78,2.79.11,5.56.55,8.25,1.31,2.77.79,5.58,2.02,7.26,4.35,2,2.77,1.99,6.45,1.91,9.87Z"/>
  <path d="M965.33,1301.87c-1.52,6.28-6.7,11.53-12.95,13.13-7.43,1.91-16.36-1.82-19.07-9-3.81-10.1-1.76-21.17,10.16-25.42,5.78-2.06,12.64.07,17.03,4.36,4.39,4.29,6.28,10.96,4.84,16.92Z"/>
  <path d="M1116.1,1295.26c-.1,4.17-.25,8.51-2.23,12.19-1.74,3.24-4.82,5.67-8.26,6.98-6.79,2.58-15.06.64-19.99-4.68-4.94-5.33-6.24-13.72-3.15-20.29.15-.32.31-.63.48-.94,3.12-5.69,9.25-9.04,15.74-8.78,2.79.11,5.56.55,8.25,1.31,2.77.79,5.58,2.02,7.26,4.35,2,2.77,1.99,6.45,1.91,9.87Z"/>
  <path d="M1267.96,1301.87c-1.52,6.28-6.7,11.53-12.95,13.13-7.43,1.91-16.36-1.82-19.07-9-3.81-10.1-1.76-21.17,10.16-25.42,5.78-2.06,12.64.07,17.03,4.36,4.39,4.29,6.28,10.96,4.84,16.92Z"/>
  <path d="M1418.73,1295.26c-.1,4.17-.25,8.51-2.23,12.19-1.74,3.24-4.82,5.67-8.26,6.98-6.79,2.58-15.06.64-19.99-4.68-4.94-5.33-6.24-13.72-3.15-20.29.15-.32.31-.63.48-.94,3.12-5.69,9.25-9.04,15.74-8.78,2.79.11,5.56.55,8.25,1.31,2.77.79,5.58,2.02,7.26,4.35,2,2.77,1.99,6.45,1.91,9.87Z"/>
  <path d="M1570.59,1301.87c-1.52,6.28-6.7,11.53-12.95,13.13-7.43,1.91-16.36-1.82-19.07-9-3.81-10.1-1.76-21.17,10.16-25.42,5.78-2.06,12.64.07,17.03,4.36,4.39,4.29,6.28,10.96,4.84,16.92Z"/>
  <path d="M1721.36,1295.26c-.1,4.17-.25,8.51-2.23,12.19-1.74,3.24-4.82,5.67-8.26,6.98-6.79,2.58-15.06.64-19.99-4.68-4.94-5.33-6.24-13.72-3.15-20.29.15-.32.31-.63.48-.94,3.12-5.69,9.25-9.04,15.74-8.78,2.79.11,5.56.55,8.25,1.31,2.77.79,5.58,2.02,7.26,4.35,2,2.77,1.99,6.45,1.91,9.87Z"/>
  <path d="M1873.22,1301.87c-1.52,6.28-6.7,11.53-12.95,13.13-7.43,1.91-16.36-1.82-19.07-9-3.81-10.1-1.76-21.17,10.16-25.42,5.78-2.06,12.64.07,17.03,4.36,4.39,4.29,6.28,10.96,4.84,16.92Z"/>
  <path d="M2023.99,1295.26c-.1,4.17-.25,8.51-2.23,12.19-1.74,3.24-4.82,5.67-8.26,6.98-6.79,2.58-15.06.64-19.99-4.68-4.94-5.33-6.24-13.72-3.15-20.29.15-.32.31-.63.48-.94,3.12-5.69,9.25-9.04,15.74-8.78,2.79.11,5.56.55,8.25,1.31,2.77.79,5.58,2.02,7.26,4.35,2,2.77,1.99,6.45,1.91,9.87Z"/>
  <path d="M2175.85,1301.87c-1.52,6.28-6.7,11.53-12.95,13.13-7.43,1.91-16.36-1.82-19.07-9-3.81-10.1-1.76-21.17,10.16-25.42,5.78-2.06,12.64.07,17.03,4.36,4.39,4.29,6.28,10.96,4.84,16.92Z"/>
  <path d="M133.05,1420.74c-.1,4.17-.25,8.51-2.23,12.19-1.74,3.24-4.82,5.67-8.26,6.98-6.79,2.58-15.06.64-19.99-4.68-4.94-5.33-6.24-13.72-3.15-20.29.15-.32.31-.63.48-.94,3.12-5.69,9.25-9.04,15.74-8.78,2.79.11,5.56.55,8.25,1.31,2.77.79,5.58,2.02,7.26,4.35,2,2.77,1.99,6.45,1.91,9.87Z"/>
  <path d="M284.91,1427.34c-1.52,6.28-6.7,11.53-12.95,13.13-7.43,1.91-16.36-1.82-19.07-9-3.81-10.1-1.76-21.17,10.16-25.42,5.78-2.06,12.64.07,17.03,4.36,4.39,4.29,6.28,10.96,4.84,16.92Z"/>
  <path d="M435.68,1420.74c-.1,4.17-.25,8.51-2.23,12.19-1.74,3.24-4.82,5.67-8.26,6.98-6.79,2.58-15.06.64-19.99-4.68-4.94-5.33-6.24-13.72-3.15-20.29.15-.32.31-.63.48-.94,3.12-5.69,9.25-9.04,15.74-8.78,2.79.11,5.56.55,8.25,1.31,2.77.79,5.58,2.02,7.26,4.35,2,2.77,1.99,6.45,1.91,9.87Z"/>
  <path d="M587.54,1427.34c-1.52,6.28-6.7,11.53-12.95,13.13-7.43,1.91-16.36-1.82-19.07-9-3.81-10.1-1.76-21.17,10.16-25.42,5.78-2.06,12.64.07,17.03,4.36,4.39,4.29,6.28,10.96,4.84,16.92Z"/>
  <path d="M738.31,1420.74c-.1,4.17-.25,8.51-2.23,12.19-1.74,3.24-4.82,5.67-8.26,6.98-6.79,2.58-15.06.64-19.99-4.68-4.94-5.33-6.24-13.72-3.15-20.29.15-.32.31-.63.48-.94,3.12-5.69,9.25-9.04,15.74-8.78,2.79.11,5.56.55,8.25,1.31,2.77.79,5.58,2.02,7.26,4.35,2,2.77,1.99,6.45,1.91,9.87Z"/>
  <path d="M890.17,1427.34c-1.52,6.28-6.7,11.53-12.95,13.13-7.43,1.91-16.36-1.82-19.07-9-3.81-10.1-1.76-21.17,10.16-25.42,5.78-2.06,12.64.07,17.03,4.36,4.39,4.29,6.28,10.96,4.84,16.92Z"/>
  <path d="M1040.94,1420.74c-.1,4.17-.25,8.51-2.23,12.19-1.74,3.24-4.82,5.67-8.26,6.98-6.79,2.58-15.06.64-19.99-4.68-4.94-5.33-6.24-13.72-3.15-20.29.15-.32.31-.63.48-.94,3.12-5.69,9.25-9.04,15.74-8.78,2.79.11,5.56.55,8.25,1.31,2.77.79,5.58,2.02,7.26,4.35,2,2.77,1.99,6.45,1.91,9.87Z"/>
  <path d="M1192.8,1427.34c-1.52,6.28-6.7,11.53-12.95,13.13-7.43,1.91-16.36-1.82-19.07-9-3.81-10.1-1.76-21.17,10.16-25.42,5.78-2.06,12.64.07,17.03,4.36,4.39,4.29,6.28,10.96,4.84,16.92Z"/>
  <path d="M1343.57,1420.74c-.1,4.17-.25,8.51-2.23,12.19-1.74,3.24-4.82,5.67-8.26,6.98-6.79,2.58-15.06.64-19.99-4.68-4.94-5.33-6.24-13.72-3.15-20.29.15-.32.31-.63.48-.94,3.12-5.69,9.25-9.04,15.74-8.78,2.79.11,5.56.55,8.25,1.31,2.77.79,5.58,2.02,7.26,4.35,2,2.77,1.99,6.45,1.91,9.87Z"/>
  <path d="M1495.43,1427.34c-1.52,6.28-6.7,11.53-12.95,13.13-7.43,1.91-16.36-1.82-19.07-9-3.81-10.1-1.76-21.17,10.16-25.42,5.78-2.06,12.64.07,17.03,4.36,4.39,4.29,6.28,10.96,4.84,16.92Z"/>
  <path d="M1646.2,1420.74c-.1,4.17-.25,8.51-2.23,12.19-1.74,3.24-4.82,5.67-8.26,6.98-6.79,2.58-15.06.64-19.99-4.68-4.94-5.33-6.24-13.72-3.15-20.29.15-.32.31-.63.48-.94,3.12-5.69,9.25-9.04,15.74-8.78,2.79.11,5.56.55,8.25,1.31,2.77.79,5.58,2.02,7.26,4.35,2,2.77,1.99,6.45,1.91,9.87Z"/>
  <path d="M1798.06,1427.34c-1.52,6.28-6.7,11.53-12.95,13.13-7.43,1.91-16.36-1.82-19.07-9-3.81-10.1-1.76-21.17,10.16-25.42,5.78-2.06,12.64.07,17.03,4.36,4.39,4.29,6.28,10.96,4.84,16.92Z"/>
  <path d="M1948.83,1420.74c-.1,4.17-.25,8.51-2.23,12.19-1.74,3.24-4.82,5.67-8.26,6.98-6.79,2.58-15.06.64-19.99-4.68-4.94-5.33-6.24-13.72-3.15-20.29.15-.32.31-.63.48-.94,3.12-5.69,9.25-9.04,15.74-8.78,2.79.11,5.56.55,8.25,1.31,2.77.79,5.58,2.02,7.26,4.35,2,2.77,1.99,6.45,1.91,9.87Z"/>
  <path d="M2100.69,1427.34c-1.52,6.28-6.7,11.53-12.95,13.13-7.43,1.91-16.36-1.82-19.07-9-3.81-10.1-1.76-21.17,10.16-25.42,5.78-2.06,12.64.07,17.03,4.36,4.39,4.29,6.28,10.96,4.84,16.92Z"/>
</svg>