<?xml version="1.0" encoding="UTF-8"?>
<svg id="Calque_1" xmlns="http://www.w3.org/2000/svg" version="1.1" viewBox="0 0 1280 1280">
  <!-- Generator: Adobe Illustrator 29.3.0, SVG Export Plug-In . SVG Version: 2.1.0 Build 146)  -->
  <path d="M55,33.5c-10.5,3.5-20,14.1-22.2,24.8-4.3,20.6,16.3,41.2,36.9,36.9,15.5-3.2,27.5-19,26-33.9-1.1-10.5-9-21.3-19-26.2-6.1-2.9-15.5-3.6-21.7-1.6Z"/>
  <path d="M311,33.5c-10.5,3.5-20,14.1-22.2,24.8-4.3,20.6,16.3,41.2,36.9,36.9,15.5-3.2,27.5-19,26-33.9-1.1-10.5-9-21.3-19-26.2-6.1-2.9-15.5-3.6-21.7-1.6Z"/>
  <path d="M567,33.5c-10.5,3.5-20,14.1-22.2,24.8-4.3,20.6,16.3,41.2,36.9,36.9,15.5-3.2,27.5-19,26-33.9-1.1-10.5-9-21.3-19-26.2-6.1-2.9-15.5-3.6-21.7-1.6Z"/>
  <path d="M823,33.5c-10.5,3.5-20,14.1-22.2,24.8-4.3,20.6,16.3,41.2,36.9,36.9,15.5-3.2,27.5-19,26-33.9-1.1-10.5-9-21.3-19-26.2-6.1-2.9-15.5-3.6-21.7-1.6Z"/>
  <path d="M1079,33.5c-10.5,3.5-20,14.1-22.2,24.8-2.5,11.7,3.2,24.4,14.2,31.9,10.7,7.4,22.9,7.5,33.7.3,17.7-11.8,20.1-33.8,5.3-48.5-8.5-8.6-20.7-11.9-31-8.5Z"/>
  <path d="M55,289.5c-10.5,3.5-20,14.1-22.2,24.8-4.3,20.6,16.3,41.2,36.9,36.9,15.5-3.2,27.5-19,26-33.9-1.1-10.5-9-21.3-19-26.2-6.1-2.9-15.5-3.6-21.7-1.6Z"/>
  <path d="M311,289.5c-10.5,3.5-20,14.1-22.2,24.8-4.3,20.6,16.3,41.2,36.9,36.9,15.5-3.2,27.5-19,26-33.9-1.1-10.5-9-21.3-19-26.2-6.1-2.9-15.5-3.6-21.7-1.6Z"/>
  <path d="M567,289.5c-10.5,3.5-20,14.1-22.2,24.8-4.3,20.6,16.3,41.2,36.9,36.9,15.5-3.2,27.5-19,26-33.9-1.1-10.5-9-21.3-19-26.2-6.1-2.9-15.5-3.6-21.7-1.6Z"/>
  <path d="M823,289.5c-10.5,3.5-20,14.1-22.2,24.8-4.3,20.6,16.3,41.2,36.9,36.9,15.5-3.2,27.5-19,26-33.9-1.1-10.5-9-21.3-19-26.2-6.1-2.9-15.5-3.6-21.7-1.6Z"/>
  <path d="M1079,289.5c-10.5,3.5-20,14.1-22.2,24.8-4.3,20.6,16.3,41.2,36.9,36.9,15.5-3.2,27.5-19,26-33.9-1.1-10.5-9-21.3-19-26.2-6.1-2.9-15.5-3.6-21.7-1.6Z"/>
  <path d="M55,545.5c-10.5,3.5-20,14.1-22.2,24.8-4.3,20.6,16.3,41.2,36.9,36.9,15.5-3.2,27.5-19,26-33.9-1.1-10.5-9-21.3-19-26.2-6.1-2.9-15.5-3.6-21.7-1.6Z"/>
  <path d="M311,545.5c-10.5,3.5-20,14.1-22.2,24.8-4.3,20.6,16.3,41.2,36.9,36.9,15.5-3.2,27.5-19,26-33.9-1.1-10.5-9-21.3-19-26.2-6.1-2.9-15.5-3.6-21.7-1.6Z"/>
  <path d="M567,545.5c-10.5,3.5-20,14.1-22.2,24.8-4.3,20.6,16.3,41.2,36.9,36.9,15.5-3.2,27.5-19,26-33.9-1.1-10.5-9-21.3-19-26.2-6.1-2.9-15.5-3.6-21.7-1.6Z"/>
  <path d="M823,545.5c-10.5,3.5-20,14.1-22.2,24.8-4.3,20.6,16.3,41.2,36.9,36.9,15.5-3.2,27.5-19,26-33.9-1.1-10.5-9-21.3-19-26.2-6.1-2.9-15.5-3.6-21.7-1.6Z"/>
  <path d="M1079,545.5c-10.5,3.5-20,14.1-22.2,24.8-4.3,20.6,16.3,41.2,36.9,36.9,15.5-3.2,27.5-19,26-33.9-1.1-10.5-9-21.3-19-26.2-6.1-2.9-15.5-3.6-21.7-1.6Z"/>
  <path d="M55,801.5c-10.5,3.5-20,14.1-22.2,24.8-4.3,20.6,16.3,41.2,36.9,36.9,15.5-3.2,27.5-19,26-33.9-1.1-10.5-9-21.3-19-26.2-6.1-2.9-15.5-3.6-21.7-1.6Z"/>
  <path d="M311,801.5c-10.5,3.5-20,14.1-22.2,24.8-2.5,11.7,3.2,24.4,14.2,31.9,10.7,7.4,22.9,7.5,33.7.3,17.7-11.8,20.1-33.8,5.3-48.5-8.5-8.6-20.7-11.9-31-8.5Z"/>
  <path d="M567,801.5c-15.1,5-25.3,21.6-22.2,36.2,2.5,11.9,13.6,23,25.5,25.5,19.3,4.1,39.4-14.2,37.4-33.9-1.1-10.5-9-21.3-19-26.2-6.1-2.9-15.5-3.6-21.7-1.6Z"/>
  <path d="M823,801.5c-15.1,5-25.3,21.6-22.2,36.2,2.5,11.9,13.6,23,25.5,25.5,19.3,4.1,39.4-14.2,37.4-33.9-1.1-10.5-9-21.3-19-26.2-6.1-2.9-15.5-3.6-21.7-1.6Z"/>
  <path d="M1079,801.5c-10.5,3.5-20,14.1-22.2,24.8-4.3,20.6,16.3,41.2,36.9,36.9,15.5-3.2,27.5-19,26-33.9-1.1-10.5-9-21.3-19-26.2-6.1-2.9-15.5-3.6-21.7-1.6Z"/>
  <path d="M55,1057.5c-10.5,3.5-20,14.1-22.2,24.8-4.3,20.6,16.3,41.2,36.9,36.9,15.5-3.2,27.5-19,26-33.9-1.1-10.5-9-21.3-19-26.2-6.1-2.9-15.5-3.6-21.7-1.6Z"/>
  <path d="M311,1057.5c-10.5,3.5-20,14.1-22.2,24.8-2.5,11.7,3.2,24.4,14.2,31.9,10.7,7.4,22.9,7.5,33.7.3,17.7-11.8,20.1-33.8,5.3-48.5-8.5-8.6-20.7-11.9-31-8.5Z"/>
  <path d="M567,1057.5c-10.5,3.5-20,14.1-22.2,24.8-4.3,20.6,16.3,41.2,36.9,36.9,15.5-3.2,27.5-19,26-33.9-1.1-10.5-9-21.3-19-26.2-6.1-2.9-15.5-3.6-21.7-1.6Z"/>
  <path d="M823,1057.5c-10.5,3.5-20,14.1-22.2,24.8-4.3,20.6,16.3,41.2,36.9,36.9,15.5-3.2,27.5-19,26-33.9-1.1-10.5-9-21.3-19-26.2-6.1-2.9-15.5-3.6-21.7-1.6Z"/>
  <path d="M1079,1057.5c-10.5,3.5-20,14.1-22.2,24.8-4.3,20.6,16.3,41.2,36.9,36.9,15.5-3.2,27.5-19,26-33.9-1.1-10.5-9-21.3-19-26.2-6.1-2.9-15.5-3.6-21.7-1.6Z"/>
</svg>