<svg width="94" height="80" viewBox="0 0 94 80" fill="none" xmlns="http://www.w3.org/2000/svg">
<g clip-path="url(#clip0_22_92)">
<path d="M39.856 19.4712C34.4569 15.9481 28.1275 14.0824 21.6618 14.1082C15.1935 14.0814 8.86164 15.949 3.46233 19.4764C3.572 19.1299 3.68689 18.7989 3.80178 18.442C7.48344 7.82986 14.1 0.734375 21.667 0.734375C29.234 0.734375 35.8401 7.82468 39.5166 18.4472C39.6314 18.7834 39.7463 19.135 39.856 19.4712Z" fill="#C7B9FF"/>
<path d="M42.582 37.7529C42.5893 41.5097 42.2626 45.2598 41.6054 48.9598C38.9264 63.9576 31.0096 74.7818 21.6618 74.7818C12.314 74.7818 4.39711 63.9214 1.71811 48.9598C1.06358 45.2595 0.736819 41.5096 0.741554 37.7529C0.723005 32.7182 1.31918 27.6998 2.51711 22.8069C2.79911 21.6691 3.11767 20.5624 3.45711 19.4815C8.85705 15.9508 15.1911 14.0813 21.6618 14.1082C28.1273 14.0836 34.4564 15.9492 39.856 19.4712C40.2007 20.5417 40.514 21.6536 40.8012 22.7914C42.0035 27.6889 42.6014 32.7128 42.582 37.7529V37.7529Z" fill="white"/>
<path d="M86.01 19.4711C80.5995 15.9699 74.2763 14.1054 67.8132 14.1054C61.35 14.1054 55.0268 15.9699 49.6163 19.4711C49.726 19.1246 49.8461 18.7937 49.961 18.4368C53.6166 7.8091 60.2644 0.713623 67.821 0.713623C75.3775 0.713623 81.9889 7.82462 85.6444 18.4472C85.7802 18.7833 85.9003 19.135 86.01 19.4711Z" fill="#C7B9FF"/>
<path d="M88.736 37.7529C88.7407 41.5096 88.414 45.2595 87.7594 48.9599C85.0752 63.9576 77.1583 74.7818 67.8158 74.7818C58.4732 74.7818 50.5511 63.9214 47.8669 48.9599C47.2124 45.2595 46.8856 41.5096 46.8903 37.7529C46.8734 32.718 47.4714 27.6996 48.6711 22.8069C48.9479 21.6691 49.2664 20.5624 49.6111 19.4815C55.0211 15.9791 61.3445 14.1138 67.8079 14.1138C74.2714 14.1138 80.5948 15.9791 86.0048 19.4815C86.3547 20.5521 86.668 21.664 86.95 22.8017C88.1532 27.6957 88.7529 32.716 88.736 37.7529V37.7529Z" fill="white"/>
<path d="M92.1931 27.0994C91.9007 25.9151 91.5769 24.7773 91.2374 23.7275C91.1226 23.381 91.0077 23.0345 90.8875 22.6931C88.4644 15.6856 84.9081 10.4208 80.7512 7.39544C77.0852 2.6427 72.5889 0 67.8158 0C60.1391 0 53.1936 6.81104 49.2508 18.2197V18.2766C49.1411 18.6024 49.0262 18.9282 48.9218 19.2592C48.5458 20.4538 48.2324 21.5554 47.9713 22.6311C47.3806 24.9759 46.9341 27.354 46.6344 29.7524C46.4569 28.8577 46.2637 27.9734 46.0443 27.0994C45.7467 25.9151 45.4281 24.7773 45.0834 23.7275C44.9738 23.381 44.8537 23.0345 44.7388 22.6931C42.3 15.6856 38.7646 10.4208 34.6024 7.39544C30.9417 2.6427 26.4453 0 21.6618 0C13.9903 0 7.05 6.81104 3.09678 18.2197V18.2766C2.98189 18.6024 2.87222 18.9282 2.76778 19.2592C2.37089 20.4538 2.08889 21.5554 1.79644 22.6311C0.583409 27.5814 -0.0197972 32.659 -1.20185e-06 37.7529C-0.00434067 41.5529 0.32591 45.346 0.986999 49.0891C2.94011 59.9909 7.48867 68.4104 13.254 72.5994C16.9096 77.3004 21.385 80 26.1842 80C35.72 80 44.0286 69.3775 46.859 53.5678C47.0574 52.4714 47.2193 51.3647 47.3812 50.2424C49.4388 60.5857 53.8724 68.5707 59.4341 72.6046C63.0897 77.3004 67.5547 80 72.3591 80C81.8897 80 90.1982 69.3775 93.0339 53.5678C93.6882 49.8258 94.0115 46.0344 94 42.2367C94.0228 37.1369 93.416 32.0534 92.1931 27.0994V27.0994ZM21.6618 1.46874C28.3671 1.46874 34.7539 7.6747 38.4826 17.7697C33.3616 14.8697 27.5608 13.3538 21.6618 13.3738C15.7579 13.3527 9.95262 14.8724 4.83055 17.7801C8.56444 7.69022 14.9564 1.46874 21.6618 1.46874ZM2.68422 50.0821C4.22165 52.0709 6.3716 53.5095 8.80851 54.1799C11.2454 54.8504 13.8366 54.7162 16.1896 53.7977C18.5426 52.8792 20.5293 51.2264 21.8489 49.0897C23.1685 46.9529 23.749 44.4485 23.5027 41.9557C23.2564 39.4629 22.1965 37.1175 20.4837 35.2746C18.7708 33.4317 16.4982 32.1918 14.0101 31.7425C11.5219 31.2932 8.95363 31.659 6.69421 32.7846C4.43478 33.9102 2.60725 35.7342 1.48833 37.9805C1.48833 37.9081 1.48833 37.8305 1.48833 37.7529C1.46604 32.7776 2.05348 27.8179 3.23778 22.9827C3.478 22.0105 3.76 21.0175 4.089 19.9522C9.31887 16.59 15.4266 14.8141 21.6618 14.8426C27.8919 14.816 33.9948 16.588 39.2241 19.9418C39.527 20.8934 39.8142 21.907 40.0806 22.9672C41.2721 27.8066 41.8631 32.7718 41.8404 37.7529C41.8459 41.4661 41.5244 45.1727 40.8796 48.8306C38.1744 63.9162 30.4351 74.0474 21.6618 74.0474C13.113 74.0474 5.57733 64.4644 2.68422 50.0718V50.0821ZM67.8158 1.46874C74.5159 1.46874 80.9079 7.6747 84.6366 17.7697C79.5071 14.8852 73.7093 13.3687 67.8106 13.3687C61.9118 13.3687 56.114 14.8852 50.9846 17.7697C54.7184 7.69022 61.1 1.46874 67.8158 1.46874V1.46874ZM48.833 50.0821C50.3653 52.0701 52.509 53.5106 54.9405 54.1864C57.3719 54.8621 59.9594 54.7365 62.3125 53.8283C64.6655 52.9202 66.6565 51.2789 67.9851 49.1519C69.3136 47.025 69.9077 44.5279 69.6776 42.0374C69.4475 39.5468 68.4058 37.1979 66.7096 35.345C65.0134 33.4921 62.7547 32.2358 60.2743 31.7656C57.7939 31.2954 55.2263 31.6368 52.959 32.7382C50.6917 33.8397 48.8476 35.6415 47.705 37.8719L47.6423 37.0754C47.6734 32.3301 48.2605 27.6044 49.3918 22.9931C49.6268 22.0208 49.914 21.0279 50.2378 19.9625C55.48 16.6298 61.5785 14.8581 67.8079 14.8581C74.0374 14.8581 80.1359 16.6298 85.3781 19.9625C85.681 20.9141 85.9682 21.9277 86.2293 22.9879C87.421 27.8203 88.0138 32.7785 87.9944 37.7529C87.9982 41.4663 87.6749 45.1728 87.0283 48.8306C84.3284 63.9162 76.5839 74.0474 67.8158 74.0474C59.267 74.0474 51.7313 64.4644 48.833 50.0718V50.0821Z" fill="black"/>
<path d="M62.1236 43.3746C64.5289 43.3746 66.4789 41.4435 66.4789 39.0614C66.4789 36.6793 64.5289 34.7483 62.1236 34.7483C59.7182 34.7483 57.7682 36.6793 57.7682 39.0614C57.7682 41.4435 59.7182 43.3746 62.1236 43.3746Z" fill="white"/>
<path d="M15.9748 43.3746C18.3802 43.3746 20.3301 41.4435 20.3301 39.0614C20.3301 36.6793 18.3802 34.7483 15.9748 34.7483C13.5694 34.7483 11.6194 36.6793 11.6194 39.0614C11.6194 41.4435 13.5694 43.3746 15.9748 43.3746Z" fill="white"/>
</g>
<defs>
<clipPath id="clip0_22_92">
<rect width="94" height="80" fill="white"/>
</clipPath>
</defs>
</svg>
