<svg width="140" height="181" viewBox="0 0 140 181" fill="none" xmlns="http://www.w3.org/2000/svg">
<g clip-path="url(#clip0_22_44)">
<path d="M66.4955 170.136C17.8055 170.136 2.04547 131.356 2.04547 112.566C2.04547 99.6255 6.20547 91.1555 9.04547 86.8455C9.04547 93.5355 10.7755 99.4455 13.8555 102.846C14.6571 103.813 15.6584 104.595 16.7907 105.138C17.923 105.682 19.1596 105.975 20.4155 105.996C25.8355 105.996 29.4755 101.996 29.4755 95.9955C29.4755 92.2555 27.1855 89.7255 24.7655 87.0455C21.8355 83.8055 18.7655 80.4455 18.7655 74.2255C18.7655 66.6855 23.3255 59.5455 26.3855 55.6055C26.3855 68.5055 35.0455 73.9255 40.0855 75.0055L42.0855 75.4455L41.7855 73.4455C41.7855 73.3255 40.1155 60.8155 49.9755 48.5555C51.2155 47.0155 52.5255 45.4555 53.8355 43.8955C60.7255 35.6855 67.8355 27.2055 67.8355 18.2055C67.8044 13.108 66.7396 8.06971 64.7055 3.39551C86.0255 15.0955 85.7055 31.3955 83.4755 40.3255C82.9055 42.6255 80.2655 54.3755 84.6555 60.0055C85.4291 60.9889 86.4258 61.7739 87.5631 62.2955C88.7003 62.8172 89.9455 63.0606 91.1955 63.0055C95.8155 63.0055 99.5155 60.1955 101.885 54.8755C102.567 53.3142 103.106 51.6942 103.495 50.0355C113.885 61.7855 111.275 72.4755 107.075 79.5355C103.225 85.9955 102.135 92.6255 104.295 96.4355C104.916 97.516 105.829 98.3997 106.929 98.9852C108.03 99.5706 109.272 99.8341 110.515 99.7455C111.678 99.7671 112.832 99.535 113.896 99.0652C114.959 98.5954 115.908 97.8994 116.675 97.0255C120.015 93.3155 120.675 86.5155 120.675 81.9355C124.865 87.7855 129.985 96.7855 129.985 109.406C129.985 119.406 126.335 134.706 116.115 147.666C108.045 157.916 92.8655 170.136 66.4955 170.136Z" fill="#F24E1E"/>
<path d="M127.615 85.9855C127.786 87.8603 127.843 89.7438 127.785 91.6255C125.851 87.1951 123.372 83.023 120.405 79.2055C121.405 72.5955 119.885 64.2855 111.135 55.5855C111.002 56.6339 110.802 57.6727 110.535 58.6955C108.731 54.2769 106.004 50.2947 102.535 47.0155C102.535 47.0155 101.065 60.4955 92.2055 61.5155C91.9497 57.3895 92.3445 53.2488 93.3755 49.2455C94.7355 43.8055 97.4955 27.5955 80.1255 14.6955C76.5155 9.5455 70.6155 4.4355 61.4255 0.135498C64.6421 5.61862 66.3885 11.8394 66.4955 18.1955C66.4955 28.3255 56.5655 38.1955 48.9355 47.6355C38.5355 60.5755 40.4555 73.6355 40.4555 73.6355C39.651 73.4377 38.8674 73.1631 38.1155 72.8155C36.7255 69.6555 36.0055 65.5055 36.7355 60.0155C34.6571 62.1991 32.8012 64.5842 31.1955 67.1355C28.8255 63.7855 27.1955 58.7955 28.1955 51.3955C28.1955 51.3955 17.4355 62.1755 17.4355 74.2055C17.4355 86.2355 28.0855 88.7355 28.0855 96.0155C28.0855 101.335 24.9755 104.616 20.4555 104.616H20.3855C19.1095 100.202 18.7455 95.5745 19.3155 91.0155C16.873 93.6194 14.9065 96.6318 13.5055 99.9155C11.0555 95.7555 9.98548 89.2855 10.7455 82.4355C10.7455 82.4355 0.615479 91.9855 0.615479 112.576C0.615479 125.135 6.98548 144.335 23.0355 157.395C33.3455 170.025 50.0355 180.135 75.0355 180.135C123.815 180.135 139.965 139.485 139.965 117.975C139.995 102.135 132.075 91.6855 127.615 85.9855ZM114.975 146.785C107.085 156.785 92.2755 168.706 66.4655 168.706C18.8555 168.706 3.46548 130.885 3.46548 112.576C3.34258 105.344 4.87857 98.1808 7.95548 91.6355C8.60548 96.6355 10.2955 101.015 12.8155 103.835C13.7504 104.957 14.9177 105.863 16.2367 106.49C17.5558 107.116 18.9952 107.449 20.4555 107.465C26.6255 107.465 30.9355 102.755 30.9355 96.0155C30.9355 91.7255 28.3555 88.8655 25.8555 86.1055C22.9755 82.9255 20.2655 79.9155 20.2655 74.2455C20.2655 68.8255 22.7955 63.5755 25.3155 59.7055C25.8195 63.617 27.4688 67.2922 30.0559 70.269C32.643 73.2457 36.0524 75.3912 39.8555 76.4355L43.8555 77.2755L43.2955 73.2755C43.049 70.7562 43.1567 68.2149 43.6155 65.7255C44.7033 59.741 47.3022 54.1336 51.1655 49.4355C52.3955 47.9055 53.7255 46.3155 55.0155 44.7955C62.0655 36.3955 69.3455 27.7055 69.3455 18.1955C69.327 14.2945 68.6959 10.4207 67.4755 6.7155C84.4755 17.7155 84.1055 31.9455 82.0955 39.9855C81.2455 43.3755 78.8455 54.8855 83.5255 60.8855C84.4349 62.0385 85.6033 62.9609 86.936 63.5777C88.2686 64.1945 89.728 64.4884 91.1955 64.4355C94.8455 64.4355 99.8855 62.8755 103.195 55.4355C103.552 54.6511 103.863 53.8464 104.125 53.0255C111.935 63.3255 109.565 72.5655 105.855 78.7855C101.685 85.7855 100.615 92.7855 103.065 97.1155C103.821 98.4038 104.917 99.4588 106.233 100.164C107.549 100.87 109.034 101.199 110.525 101.116C111.888 101.133 113.239 100.856 114.485 100.304C115.731 99.7518 116.843 98.937 117.745 97.9155C120.395 94.9755 121.515 90.4155 121.925 86.3055C126.256 93.1965 128.56 101.167 128.575 109.305C128.615 119.135 125.005 134.135 115.005 146.785H114.975Z" fill="black"/>
</g>
<defs>
<clipPath id="clip0_22_44">
<rect width="139.38" height="180" fill="white" transform="translate(0.615479 0.135498)"/>
</clipPath>
</defs>
</svg>
