<svg width="116" height="116" viewBox="0 0 116 116" fill="none" xmlns="http://www.w3.org/2000/svg">
<path d="M47.1087 7.31049C41.292 -1.24523 27.9276 4.34305 29.9325 14.4927L30.9227 19.5058C31.8629 24.2656 27.4459 28.3403 22.7772 27.0201L17.86 25.6297C7.90462 22.8145 1.25901 35.6858 9.31884 42.1722L13.2998 45.376C17.0796 48.4178 16.3151 54.3785 11.8901 56.3681L7.22954 58.4637C-2.20625 62.7063 0.976422 76.838 11.32 76.6261L16.4289 76.5214C21.2797 76.4221 24.5255 81.4795 22.4146 85.848L20.1914 90.4491C15.6903 99.7644 27.2121 108.544 34.9995 101.733L38.8459 98.3689C42.4979 95.1748 48.2352 96.9626 49.4262 101.666L50.6806 106.62C53.2203 116.649 67.69 115.968 69.2775 105.745L70.0615 100.696C70.806 95.9014 76.3503 93.5831 80.2859 96.4204L84.4309 99.4088C92.8231 105.459 103.47 95.637 98.1149 86.7852L95.4698 82.413C92.9583 78.2619 95.7153 72.9222 100.554 72.566L105.65 72.1908C115.968 71.4312 117.811 57.0632 108.018 53.7247L103.182 52.0757C98.5895 50.51 97.2692 44.6474 100.747 41.2643L104.41 37.7011C111.825 30.4871 104.001 18.2962 94.354 22.033L89.589 23.8787C85.0647 25.6312 80.2849 21.9888 80.7743 17.1618L81.2898 12.0779C82.3335 1.78489 68.5037 -2.52468 63.5155 6.53906L61.0516 11.0159C58.7123 15.2664 52.7095 15.5487 49.9817 11.5364L47.1087 7.31049Z" fill="white" stroke="black" stroke-width="3"/>
</svg>
