<svg width="90" height="102" viewBox="0 0 90 102" fill="none" xmlns="http://www.w3.org/2000/svg">
<g clip-path="url(#clip0_115_82)">
<rect x="9.05661" y="108.076" width="109.887" height="28.3774" rx="14.1887" fill="white" stroke="white" stroke-width="18.1132"/>
<path d="M80.2356 43.0692C80.2799 29.8559 73.6432 18.2467 59.2922 17.6935C57.7632 17.6813 56.2372 17.8298 54.7391 18.1364C53.2778 18.344 51.833 18.6551 50.4156 19.0673C50.3235 19.1024 50.2321 19.1311 50.1399 19.1644C48.8898 19.4591 47.6222 19.6736 46.3449 19.8066V18.1201H46.3468C46.3468 18.1201 46.6539 12.5459 43.4104 9.29735C40.1669 6.04883 34.6013 6.35643 34.6013 6.35643C34.1558 12.6956 38.2433 17.5278 44.2238 18.0944V19.8011C42.9696 19.666 41.7249 19.4531 40.4969 19.1638C40.4051 19.1311 40.3137 19.1017 40.2212 19.0667C38.8038 18.6544 37.359 18.3434 35.8976 18.1358C34.3996 17.8291 32.8736 17.6807 31.3446 17.6929C16.9936 18.2452 10.3566 29.8555 10.4012 43.0686V43.0817V43.0919C10.4408 53.1109 14.3204 64.0482 21.5912 71.785C26.3712 77.7171 34.1654 79.4142 41.4206 78.0842C42.7105 77.9531 44.0179 77.8622 45.3179 77.8473C46.6181 77.8622 47.9255 77.9536 49.2153 78.0842C56.4705 79.4142 64.2646 77.7171 69.0448 71.785C76.3155 64.0482 80.1949 53.1109 80.2348 43.0919V43.0817L80.2356 43.0692Z" stroke="white" stroke-width="18.1132" stroke-linecap="round" stroke-linejoin="round"/>
<path d="M45.9592 17.6167H43.8366V23.1126H45.9592V17.6167Z" fill="#9C0900"/>
<path d="M43.0225 9.56144C46.2685 12.7973 45.9611 18.3504 45.9611 18.3504C38.8458 18.8466 33.7103 13.6696 34.2068 6.63179C34.2068 6.63179 39.7766 6.32537 43.0225 9.56144Z" fill="#4EB140"/>
<path d="M79.875 43.2171V43.2039C79.9194 30.0413 73.2776 18.4765 58.9158 17.9255C57.3857 17.9134 55.8585 18.0612 54.3594 18.3667C52.8969 18.5735 51.451 18.8834 50.0326 19.294C49.9404 19.329 49.849 19.3575 49.7566 19.3907C48.1737 19.7751 46.5584 20.0119 44.9314 20.098C43.3046 20.0119 41.6893 19.7751 40.1065 19.3907C40.0146 19.3582 39.9231 19.329 39.8305 19.294C38.4121 18.8834 36.9663 18.5735 35.5039 18.3667C34.0048 18.0612 32.4776 17.9134 30.9475 17.9255C16.5857 18.4757 9.94394 30.0415 9.9883 43.2039V43.2171V43.2272C10.028 53.2078 13.9105 64.1029 21.1867 71.8103C25.9703 77.7197 33.7704 79.4103 41.0311 78.0854C42.3219 77.9548 43.6303 77.8643 44.9312 77.8494C46.2324 77.8643 47.5408 77.9552 48.8316 78.0854C56.0923 79.4103 63.8921 77.7197 68.6759 71.8103C75.9521 64.1029 79.8345 53.2078 79.8744 43.2272L79.875 43.2171Z" fill="#FF4205"/>
<path d="M44.9327 50.3962C41.6407 50.3962 38.3025 48.3331 37.7797 44.3766C37.7029 43.7955 38.1843 43.3148 38.7705 43.3123V43.3123C39.3566 43.3097 39.8231 43.787 39.9337 44.3626C40.3339 46.4454 41.9252 48.2806 44.9329 48.2806C47.9393 48.2806 49.5306 46.446 49.931 44.3626C50.0416 43.787 50.5082 43.3098 51.0944 43.3125V43.3125C51.6805 43.3152 52.1618 43.7959 52.0849 44.377C51.5615 48.3335 48.2237 50.3962 44.9327 50.3962Z" fill="#292929"/>
<path d="M69.4917 26.8513H48.3289C48.0362 26.8513 47.7554 26.9672 47.5484 27.1736C47.3414 27.38 47.2252 27.6599 47.2252 27.9517C47.2258 28.107 47.1932 28.2607 47.1297 28.4025C47.0661 28.5444 46.973 28.6711 46.8566 28.7743C46.7402 28.8775 46.603 28.9549 46.4543 29.0012C46.3056 29.0475 46.1487 29.0618 45.994 29.043L43.8865 29.0407C43.7307 29.0619 43.5722 29.0496 43.4216 29.0046C43.2711 28.9595 43.132 28.8828 43.0137 28.7795C42.8955 28.6763 42.8008 28.5489 42.7362 28.4061C42.6715 28.2632 42.6384 28.1082 42.639 27.9515C42.639 27.6596 42.5227 27.3797 42.3157 27.1734C42.1087 26.967 41.8279 26.8511 41.5352 26.8511H20.3725C20.0626 26.851 19.7557 26.9118 19.4694 27.03C19.1832 27.1482 18.923 27.3215 18.7039 27.5399C18.4848 27.7584 18.311 28.0177 18.1924 28.3032C18.0739 28.5886 18.0129 28.8945 18.0129 29.2034V29.4546C18.013 30.0783 18.2616 30.6765 18.704 31.1175C19.1464 31.5586 19.7464 31.8063 20.372 31.8063V35.2847C20.3721 37.9166 21.4208 40.4406 23.2876 42.3016C25.1543 44.1626 27.6861 45.2081 30.326 45.2081C35.3745 45.2081 39.6615 41.4604 40.309 36.6037C40.3232 33.4965 42.6405 32.106 44.9312 32.106C47.2226 32.106 49.5407 33.4969 49.5543 36.6033C50.2017 41.4599 54.4886 45.2079 59.5373 45.2079C62.1772 45.2079 64.709 44.1624 66.5757 42.3014C68.4423 40.4404 69.491 37.9163 69.491 35.2845V31.8063C69.8009 31.8065 70.1078 31.7457 70.3942 31.6276C70.6805 31.5095 70.9407 31.3363 71.1599 31.1179C71.3791 30.8994 71.553 30.6401 71.6717 30.3547C71.7903 30.0693 71.8514 29.7634 71.8514 29.4544V29.2034C71.8514 28.8945 71.7904 28.5886 71.6718 28.3032C71.5533 28.0178 71.3794 27.7584 71.1603 27.54C70.9412 27.3216 70.681 27.1483 70.3947 27.0302C70.1084 26.912 69.8015 26.8512 69.4917 26.8513Z" fill="#292929"/>
<path d="M22.7122 30.5565C22.7122 29.5755 23.5075 28.7803 24.4885 28.7803H36.2191C37.2 28.7803 37.9953 29.5755 37.9953 30.5565V34.6823C37.9953 38.9026 34.574 42.3238 30.3538 42.3238V42.3238C26.1335 42.3238 22.7122 38.9026 22.7122 34.6823V30.5565Z" fill="url(#paint0_linear_115_82)"/>
<path d="M52.0047 30.5565C52.0047 29.5755 52.7999 28.7803 53.7809 28.7803H65.5115C66.4925 28.7803 67.2877 29.5755 67.2877 30.5565V34.6823C67.2877 38.9026 63.8665 42.3238 59.6462 42.3238V42.3238C55.4259 42.3238 52.0047 38.9026 52.0047 34.6823V30.5565Z" fill="url(#paint1_linear_115_82)"/>
<path d="M27.7153 39.5139C27.5054 39.5139 27.3002 39.4518 27.1257 39.3356C26.9511 39.2193 26.8151 39.054 26.7348 38.8607C26.6545 38.6673 26.6335 38.4545 26.6744 38.2493C26.7154 38.044 26.8165 37.8555 26.965 37.7075L33.7075 30.9853C33.9066 30.7868 34.1765 30.6753 34.458 30.6753C34.7395 30.6753 35.0095 30.7867 35.2086 30.9852C35.4076 31.1836 35.5195 31.4527 35.5195 31.7334C35.5195 32.014 35.4077 32.2832 35.2087 32.4816L28.4657 39.2039C28.3672 39.3023 28.2503 39.3803 28.1215 39.4335C27.9927 39.4867 27.8547 39.514 27.7153 39.5139V39.5139Z" fill="white"/>
<path d="M57.0931 39.514C56.8832 39.514 56.6779 39.452 56.5034 39.3357C56.3288 39.2195 56.1927 39.0542 56.1124 38.8608C56.032 38.6675 56.011 38.4547 56.052 38.2494C56.093 38.0441 56.1941 37.8556 56.3425 37.7076L63.0849 30.9853C63.2842 30.7884 63.5537 30.6781 63.8344 30.6787C64.1151 30.6793 64.3841 30.7908 64.5825 30.9886C64.781 31.1865 64.8928 31.4547 64.8934 31.7345C64.894 32.0143 64.7834 32.283 64.5858 32.4817L57.843 39.204C57.7447 39.3023 57.6278 39.3803 57.4991 39.4335C57.3704 39.4867 57.2324 39.5141 57.0931 39.514V39.514Z" fill="white"/>
<path d="M63.0938 40.2539C62.8839 40.2539 62.6787 40.1919 62.5042 40.0756C62.3296 39.9593 62.1936 39.7941 62.1133 39.6007C62.0329 39.4073 62.0119 39.1946 62.0529 38.9893C62.0939 38.7841 62.195 38.5955 62.3435 38.4476L63.8274 36.9682C64.0265 36.7697 64.2964 36.6582 64.578 36.6582C64.8595 36.6582 65.1295 36.7697 65.3285 36.9682C65.5276 37.1666 65.6394 37.4358 65.6394 37.7164C65.6394 37.9971 65.5276 38.2663 65.3285 38.4647L63.8444 39.9441C63.7459 40.0425 63.6289 40.1205 63.5001 40.1737C63.3713 40.2268 63.2332 40.2541 63.0938 40.2539V40.2539Z" fill="white"/>
<ellipse cx="63.0425" cy="55.0208" rx="1.91038" ry="1.90456" fill="#C43E00"/>
<ellipse cx="60.0707" cy="50.5769" rx="1.91038" ry="1.90457" fill="#C43E00"/>
<ellipse cx="65.3774" cy="50.1536" rx="1.91038" ry="1.90457" fill="#C43E00"/>
<ellipse cx="1.91038" cy="1.90456" rx="1.91038" ry="1.90456" transform="matrix(-1 0 0 1 28.8679 53.1162)" fill="#C43E00"/>
<ellipse cx="1.91038" cy="1.90457" rx="1.91038" ry="1.90457" transform="matrix(-1 0 0 1 31.8396 48.6724)" fill="#C43E00"/>
<ellipse cx="1.91038" cy="1.90457" rx="1.91038" ry="1.90457" transform="matrix(-1 0 0 1 26.533 48.249)" fill="#C43E00"/>
<path d="M22.0183 77.3915C23.0671 77.3915 23.7322 77.315 24.1671 77.2385C24.602 77.162 24.8066 77.0854 24.9089 77.0854C26.4438 77.0854 27.3391 79.6612 27.3391 80.8854C27.3391 82.0075 26.8531 83.0021 25.5996 83.0021C23.6555 83.0021 24.602 80.3243 21.9672 80.3243C19.6649 80.3243 19.5882 80.6303 19.4603 81.5739C19.3324 82.237 19.051 83.8692 19.051 84.5067C19.051 84.8383 19.3068 84.8128 19.5882 84.8128C21.3021 84.8128 20.2277 82.492 22.1207 82.492C23.4253 82.492 23.7066 84.2262 23.7066 85.2208C23.7066 86.649 23.502 90.4234 21.43 90.4234C19.537 90.4234 20.9695 87.7456 19.537 87.7456C19.051 87.7456 18.565 87.6691 18.565 91.571C18.565 93.1777 20.33 92.3361 20.33 93.6367C20.33 95.5749 16.4929 95.4729 15.1883 95.4729C11.1978 95.4984 9.86757 95.1414 9.86757 93.6877C9.86757 92.2596 11.2233 92.9991 11.7349 91.7495C12.4512 89.9643 13.3209 83.6907 13.3209 81.7014C13.3209 79.4827 11.607 80.7833 11.607 78.9982C11.607 77.57 13.1163 77.2895 14.2418 77.2895C16.3139 77.2895 17.2092 77.3915 18.1301 77.3915H22.0183Z" fill="#4EB140"/>
<path d="M33.6319 91.9025C33.7854 94.3763 32.711 95.3454 29.2065 95.4984C28.26 95.5494 27.2368 95.2944 27.2368 94.1468C27.2368 92.6166 28.26 89.4288 28.3111 87.057C28.3367 86.3684 28.26 86.1644 27.5693 86.1644C26.7763 86.1644 26.367 85.9604 26.367 85.0423C26.367 83.6652 28.439 83.2571 29.4111 82.7726C30.1018 82.4155 30.9459 82.1095 31.7645 82.1095C33.3249 82.1095 32.6343 84.5322 33.4528 84.5322C34.1947 84.5322 34.1179 82.084 36.4969 82.084C38.1597 82.084 39.2852 83.5121 39.2852 85.1188C39.2852 86.6745 38.5178 88.1791 36.7783 88.1791C35.8574 88.1791 35.4993 87.8221 35.0644 87.0825C34.9877 86.9295 34.7574 86.4705 34.5528 86.4705C34.1947 86.4705 34.0412 87.5416 34.0156 87.7711L33.6319 91.9025Z" fill="#4EB140"/>
<path d="M52.6127 85.1188C52.6127 88.2046 49.1593 90.6019 46.2687 90.6019C45.9106 90.6019 45.2711 90.6019 45.2711 91.1374C45.2711 91.877 46.192 92.2851 46.8315 92.2851C48.6733 92.2851 50.0802 90.8314 50.8988 90.8314C51.436 90.8314 51.922 91.3925 51.922 91.9025C51.922 93.2542 50.2081 94.0958 49.1593 94.5803C47.7268 95.2179 46.3454 95.6004 44.7339 95.6004C41.613 95.6004 38.9015 94.2488 39.0294 90.8314C39.2596 85.5269 44.2223 82.084 48.8779 82.084C50.8988 82.084 52.6127 82.8746 52.6127 85.1188ZM45.2199 87.7966C45.2199 88.1026 45.3222 88.5107 45.6803 88.5107C46.3966 88.5107 47.65 86.6235 47.5733 85.3993C47.5477 85.0678 47.3942 84.6088 46.985 84.6088C45.9362 84.6088 45.2199 86.9805 45.2199 87.7966Z" fill="#4EB140"/>
<path d="M63.024 86.0879C62.0007 86.0879 62.0007 84.6088 61.0287 84.6088C60.5938 84.6088 60.2357 84.9148 60.2357 85.3483C60.2357 87.006 63.8937 88.2301 63.8937 91.2905C63.8937 94.4528 60.1589 95.6004 57.5753 95.6004C55.9382 95.6004 52.9196 95.1414 52.9196 92.9991C52.9196 92.2341 53.4057 91.1885 54.2754 91.1885C55.3498 91.1885 55.1707 92.8971 56.4498 92.8971C56.9614 92.8971 57.5497 92.6166 57.5497 92.0555C57.5497 90.7039 54.3522 89.3778 54.3522 86.5215C54.3522 83.4611 57.8567 82.084 60.4915 82.084C61.8217 82.084 64.3797 82.5175 64.3797 84.2262C64.3797 84.9913 63.9193 86.0879 63.024 86.0879Z" fill="#4EB140"/>
<path d="M72.5143 83.1808C72.4376 83.5634 72.2329 84.3539 72.5911 84.3539C73.0515 84.3539 75.098 82.0842 77.4258 82.0842C79.1653 82.0842 80.342 82.9513 80.342 84.762C80.342 86.6747 79.4978 89.4545 79.4722 90.9081C79.4467 92.2343 80.8536 91.0867 80.7768 92.3363C80.6489 94.147 76.7863 95.5496 75.3026 95.4476C73.998 95.3711 73.4352 94.8101 73.4352 93.5094C73.4352 91.8517 74.5096 88.6129 74.5096 87.3123C74.5096 86.8022 74.3305 86.2411 73.7678 86.2411C71.8492 86.2411 71.3632 91.3672 71.2353 92.3618C71.1586 92.9739 71.1074 93.8665 70.6469 94.3255C70.0074 94.9886 68.3703 95.4986 67.475 95.4986C66.4262 95.4986 65.2495 95.2181 65.2495 93.9685C65.2495 93.3054 65.6076 91.9793 65.7099 91.2652C65.9913 89.3015 67.2192 83.7419 67.2192 81.3191C67.2192 80.7836 67.1424 80.4775 66.5285 80.452C65.9401 80.4265 65.3774 80.4775 65.3774 79.6614C65.3774 78.5138 66.8354 78.0038 67.7308 77.7232C68.933 77.3407 70.2632 77.0347 71.5167 77.0347C72.4887 77.0347 73.2306 77.1877 73.2306 78.2588C73.2306 79.1259 72.898 80.7071 72.7701 81.5997L72.5143 83.1808Z" fill="#4EB140"/>
</g>
<defs>
<linearGradient id="paint0_linear_115_82" x1="30.3538" y1="28.7803" x2="30.3538" y2="42.3238" gradientUnits="userSpaceOnUse">
<stop stop-color="#942637"/>
<stop offset="1" stop-color="#942637" stop-opacity="0"/>
</linearGradient>
<linearGradient id="paint1_linear_115_82" x1="59.6462" y1="28.7803" x2="59.6462" y2="42.3238" gradientUnits="userSpaceOnUse">
<stop stop-color="#942637"/>
<stop offset="1" stop-color="#942637" stop-opacity="0"/>
</linearGradient>
<clipPath id="clip0_115_82">
<rect width="90" height="102" fill="white"/>
</clipPath>
</defs>
</svg>
