<svg width="180" height="180" viewBox="0 0 180 180" fill="none" xmlns="http://www.w3.org/2000/svg">
<g clip-path="url(#clip0_142_176)">
<path d="M85.71 170.02C132.273 170.02 170.02 132.273 170.02 85.7099C170.02 39.1468 132.273 1.3999 85.71 1.3999C39.1469 1.3999 1.4 39.1468 1.4 85.7099C1.4 132.273 39.1469 170.02 85.71 170.02Z" fill="#FFC701"/>
<path d="M150.46 29.61C142.76 20.7006 133.306 13.4742 122.688 8.38181C112.07 3.28942 100.517 0.440402 88.7486 0.0126133C76.9806 -0.415176 65.2507 1.58744 54.2912 5.89546C43.3317 10.2035 33.3779 16.7244 25.0512 25.0511C16.7244 33.3779 10.2035 43.3317 5.89547 54.2912C1.58746 65.2507 -0.415163 76.9806 0.0126266 88.7486C0.440416 100.517 3.28943 112.07 8.38182 122.688C13.4742 133.306 20.7006 142.76 29.61 150.46C37.3161 159.347 46.7697 166.552 57.3818 171.626C67.994 176.699 79.5373 179.534 91.2926 179.951C103.048 180.369 114.763 178.362 125.709 174.054C136.655 169.746 146.596 163.231 154.913 154.913C163.231 146.596 169.746 136.655 174.054 125.709C178.362 114.763 180.369 103.048 179.951 91.2926C179.534 79.5373 176.7 67.994 171.626 57.3818C166.552 46.7697 159.347 37.316 150.46 29.61V29.61ZM85.71 2.80999C102.109 2.80801 118.14 7.66917 131.776 16.7787C145.412 25.8882 156.04 38.8369 162.317 53.9871C168.593 69.1373 170.236 85.8086 167.037 101.892C163.839 117.976 155.942 132.75 144.346 144.346C132.75 155.942 117.976 163.839 101.892 167.037C85.8086 170.236 69.1373 168.593 53.9871 162.317C38.8369 156.04 25.8882 145.412 16.7787 131.776C7.66918 118.14 2.80802 102.109 2.81 85.71C2.83646 63.7317 11.579 42.6611 27.1201 27.1201C42.6611 11.579 63.7317 2.83645 85.71 2.80999V2.80999Z" fill="black"/>
<path d="M47.31 77.1899L45.82 74.8099L66.72 61.7899L45.82 48.7599L47.31 46.3799L72.03 61.7899L47.31 77.1899Z" fill="black"/>
<path d="M124.12 77.1899L99.4 61.7699L124.12 46.3799L125.61 48.7599L104.71 61.7799L125.61 74.8099L124.12 77.1899Z" fill="black"/>
<path d="M143.3 90.8398L143.15 92.3798C141.801 106.679 135.167 119.96 124.545 129.627C113.923 139.294 100.077 144.652 85.715 144.652C71.3527 144.652 57.5068 139.294 46.8849 129.627C36.2629 119.96 29.6289 106.679 28.28 92.3798L28.13 90.8398H143.3Z" fill="black"/>
<path d="M127.92 94.6099H43.52V109.6H127.92V94.6099Z" fill="white"/>
</g>
<defs>
<clipPath id="clip0_142_176">
<rect width="180" height="180" fill="white"/>
</clipPath>
</defs>
</svg>
