<svg width="132" height="180" viewBox="0 0 132 180" fill="none" xmlns="http://www.w3.org/2000/svg">
<g clip-path="url(#clip0_12_16)">
<path d="M131.57 110.74V157.68C131.562 163.597 129.208 169.27 125.024 173.454C120.84 177.638 115.167 179.992 109.25 180H49.12C38.517 179.981 28.3536 175.761 20.8562 168.264C13.3587 160.766 9.1385 150.603 9.12 140V127.36L32.12 99.94V24.55C32.1226 20.4557 33.7482 16.5295 36.6404 13.6316C39.5327 10.7337 43.4558 9.10055 47.55 9.08997H47.83C51.926 9.09791 55.8516 10.7299 58.746 13.6281C61.6404 16.5262 63.2674 20.454 63.27 24.55V62.64L102.88 15.44C104.183 13.8843 105.78 12.6011 107.579 11.6638C109.379 10.7266 111.346 10.1537 113.368 9.97815C115.389 9.80257 117.425 10.0277 119.36 10.6406C121.294 11.2535 123.088 12.2422 124.64 13.55L124.85 13.72C127.981 16.3555 129.939 20.1251 130.296 24.2022C130.652 28.2794 129.377 32.3314 126.75 35.47L92.19 76.74C94.4065 76.3436 96.6831 76.4391 98.8587 77.0197C101.034 77.6003 103.056 78.6519 104.78 80.1L105 80.28C107.147 82.0873 108.762 84.4443 109.673 87.0988C110.583 89.7533 110.755 92.6053 110.17 95.35C112.769 94.2916 115.607 93.9623 118.378 94.3976C121.15 94.8328 123.751 96.0161 125.9 97.82L126.11 97.99C127.668 99.2926 128.952 100.891 129.887 102.694C130.823 104.496 131.391 106.466 131.56 108.49C131.613 109.239 131.617 109.991 131.57 110.74Z" fill="black"/>
<path d="M120.66 101.88V148.58C120.657 154.027 118.492 159.25 114.641 163.101C110.79 166.953 105.567 169.117 100.12 169.12H40C29.8598 169.117 20.1359 165.087 12.9667 157.916C5.79746 150.745 1.76999 141.02 1.76999 130.88V118.88L24.77 91.45V15.45C24.7687 13.6558 25.1211 11.8789 25.8071 10.221C26.4931 8.56313 27.4993 7.05674 28.768 5.78803C30.0367 4.51932 31.5431 3.51318 33.201 2.82717C34.8589 2.14116 36.6358 1.78873 38.43 1.79004H38.7C40.4942 1.78873 42.2711 2.14116 43.929 2.82717C45.5869 3.51318 47.0933 4.51932 48.362 5.78803C49.6307 7.05674 50.6368 8.56313 51.3229 10.221C52.0089 11.8789 52.3613 13.6558 52.36 15.45V58.45L95.14 7.45004C96.2925 6.07568 97.7046 4.94194 99.2955 4.11362C100.886 3.2853 102.625 2.77865 104.412 2.62262C106.199 2.4666 107.999 2.66427 109.709 3.20432C111.42 3.74437 113.007 4.61623 114.38 5.77004L114.58 5.95004C115.954 7.10255 117.088 8.51462 117.916 10.1055C118.745 11.6965 119.251 13.435 119.407 15.2219C119.563 17.0087 119.366 18.8088 118.826 20.5192C118.286 22.2296 117.414 23.8168 116.26 25.19L76 73.23C78.411 70.7948 81.6492 69.3548 85.0723 69.1955C88.4953 69.0362 91.8533 70.1693 94.48 72.37L94.69 72.55C97.4595 74.8759 99.1945 78.2045 99.515 81.8068C99.8355 85.4092 98.7154 88.9918 96.4 91.77C97.5497 90.3977 98.9588 89.2657 100.547 88.4388C102.135 87.6119 103.87 87.1064 105.653 86.9513C107.437 86.7961 109.234 86.9944 110.94 87.5347C112.647 88.0751 114.231 88.9468 115.6 90.1L115.8 90.28C117.484 91.6795 118.805 93.4649 119.651 95.4845C120.498 97.5041 120.844 99.6981 120.66 101.88Z" fill="#A259FF"/>
<path d="M122.46 99.39C122.291 97.3667 121.722 95.3971 120.784 93.5962C119.847 91.7952 118.561 90.1988 117 88.9L116.79 88.72C115.242 87.412 113.449 86.4246 111.516 85.8151C109.583 85.2057 107.548 84.9864 105.53 85.17C103.991 85.3042 102.481 85.6682 101.05 86.25C101.639 83.5072 101.47 80.6559 100.563 78.0014C99.656 75.3468 98.0441 72.9889 95.9 71.18L95.69 71C93.9605 69.5539 91.9356 68.5037 89.7572 67.9233C87.5788 67.3428 85.2997 67.2461 83.08 67.64L117.65 26.38C120.277 23.2398 121.553 19.1862 121.196 15.1074C120.84 11.0286 118.882 7.25733 115.75 4.62L115.54 4.44C112.399 1.80823 108.342 0.531091 104.26 0.889234C100.178 1.24738 96.4047 3.2115 93.77 6.35L54.17 53.55V15.45C54.1674 11.3549 52.5401 7.42823 49.6454 4.53166C46.7507 1.63508 42.8251 0.00529676 38.73 0L38.45 0C34.354 0.00529196 30.4273 1.63475 27.531 4.53104C24.6348 7.42734 23.0053 11.354 23 15.45V90.84L0 118.26L0 130.88C0.0185067 141.483 4.23872 151.646 11.7362 159.144C19.2336 166.641 29.397 170.861 40 170.88H100.12C106.038 170.875 111.712 168.521 115.897 164.337C120.081 160.152 122.435 154.478 122.44 148.56V101.65C122.507 100.898 122.513 100.143 122.46 99.39ZM97.82 92.92C99.8399 90.5169 102.731 89.0135 105.858 88.7397C108.985 88.466 112.093 89.4443 114.5 91.46L114.71 91.64C115.907 92.639 116.892 93.8662 117.61 95.2499C118.328 96.6337 118.763 98.1464 118.89 99.7C118.89 99.91 118.89 100.11 118.89 100.32V101.59C118.715 104.078 117.752 106.446 116.14 108.35L104 122.73C102.895 124.04 101.517 125.093 99.9621 125.815C98.4075 126.537 96.714 126.911 95 126.91H94.64C92.4617 126.915 90.3249 126.315 88.4672 125.177C86.6096 124.04 85.1042 122.409 84.1184 120.466C83.1327 118.524 82.7053 116.346 82.8839 114.175C83.0625 112.004 83.84 109.925 85.13 108.17L97.8 92.94L97.82 92.92ZM93.38 73.75L93.59 73.92C95.9965 75.9437 97.5025 78.839 97.7781 81.9712C98.0536 85.1035 97.0762 88.2172 95.06 90.63L82.82 105.22C82.54 105.56 82.28 105.9 82.03 106.22L77.57 111.57C77.1299 109.782 76.1316 108.182 74.72 107L60.26 94.88L77.36 74.47C79.4566 72.3686 82.2645 71.129 85.23 70.9957C88.1955 70.8624 91.1033 71.8451 93.38 73.75ZM26.59 15.45C26.5926 12.3044 27.8427 9.28829 30.066 7.0631C32.2894 4.8379 35.3044 3.58529 38.45 3.58H38.73C41.8756 3.58529 44.8906 4.8379 47.114 7.0631C49.3373 9.28829 50.5874 12.3044 50.59 15.45V63.39L96.52 8.65C97.5197 7.45459 98.7456 6.4683 100.127 5.74768C101.509 5.02706 103.019 4.58629 104.572 4.45065C106.124 4.31501 107.688 4.48716 109.174 4.95724C110.66 5.42732 112.038 6.18608 113.23 7.19L113.44 7.36C115.848 9.38544 117.354 12.2834 117.628 15.4181C117.902 18.5527 116.92 21.6679 114.9 24.08L74.63 72.15C74.39 72.4 74.15 72.64 73.92 72.91L57.52 92.58L43.11 80.48C41.3304 78.9958 39.0357 78.2764 36.7272 78.4787C34.4188 78.6811 32.2843 79.7888 30.79 81.56L26.59 86.56V15.45ZM118.89 148.58C118.882 153.548 116.905 158.31 113.392 161.822C109.88 165.335 105.118 167.312 100.15 167.32H40C30.343 167.301 21.0872 163.456 14.2606 156.625C7.43392 149.795 3.59321 140.537 3.58 130.88V119.56L33.58 83.87C34.4606 82.8233 35.7202 82.1682 37.0828 82.0482C38.4454 81.9283 39.8 82.3532 40.85 83.23L72.46 109.75C73.5067 110.631 74.1618 111.89 74.2818 113.253C74.4017 114.615 73.9768 115.97 73.1 117.02L73 117.14L72.92 117.23C69.7544 121.002 65.2201 123.363 60.3142 123.792C55.4084 124.222 50.5328 122.685 46.76 119.52L39.86 113.72L38.7 115.1L38.42 115.44L37.88 116.08L28.2 127.55L30.95 129.85L40.25 118.77L44.41 122.26C48.9102 126.036 54.7257 127.871 60.5781 127.361C66.4305 126.851 71.8409 124.038 75.62 119.54L75.79 119.32L79.18 115.26C79.2351 119.315 80.8813 123.186 83.7639 126.039C86.6465 128.891 90.5345 130.497 94.59 130.51H95C97.2357 130.502 99.4424 130.004 101.465 129.052C103.488 128.1 105.278 126.717 106.71 125L118.87 110.62L118.89 148.58Z" fill="black"/>
</g>
<defs>
<clipPath id="clip0_12_16">
<rect width="131.61" height="180" fill="white"/>
</clipPath>
</defs>
</svg>
