<svg width="247" height="251" viewBox="0 0 247 251" fill="none" xmlns="http://www.w3.org/2000/svg">
<path fill-rule="evenodd" clip-rule="evenodd" d="M133.499 34.1348C188.334 34.1348 232.784 79.5172 232.784 135.499C232.784 191.481 188.334 236.866 133.499 236.866C78.6666 236.866 34.2157 191.481 34.2157 135.499C34.2157 79.5172 78.6666 34.1348 133.499 34.1348Z" fill="black"/>
<path d="M123.499 24.6348C178.048 24.6348 222.284 69.7835 222.284 125.499C222.284 181.214 178.048 226.366 123.499 226.366C68.9525 226.366 24.7157 181.214 24.7157 125.499C24.7157 69.7835 68.9524 24.6348 123.499 24.6348Z" fill="url(#paint0_radial_61_143)" stroke="black"/>
<path d="M105.503 177.447C103.96 177.904 102.318 177.082 101.839 175.608C101.358 174.135 102.219 172.567 103.762 172.107C110.734 170.024 118.992 168.764 127.296 168.963C134.562 169.139 141.871 170.428 148.413 173.252C149.885 173.885 150.542 175.541 149.879 176.948C149.214 178.357 147.482 178.983 146.009 178.348C140.205 175.843 133.675 174.696 127.157 174.541C119.54 174.359 111.939 175.522 105.503 177.447Z" fill="#2B2A29"/>
<path d="M155.12 183.364C156.076 184.999 155.368 187.016 153.534 187.87C151.703 188.724 149.444 188.091 148.488 186.456C145.909 182.055 144.666 176.987 145.608 172.064C146.446 167.703 148.958 163.509 153.717 160.038C155.32 158.873 157.68 159.091 158.985 160.523C160.289 161.957 160.045 164.064 158.442 165.227C155.235 167.565 153.551 170.341 153.005 173.192C152.352 176.6 153.264 180.192 155.12 183.364Z" fill="#2B2A29"/>
<path d="M102.405 186.633C101.281 188.206 98.8473 188.72 96.9733 187.779C95.0963 186.838 94.4835 184.796 95.6079 183.221C97.7826 180.165 98.9814 176.649 98.5171 173.241C98.1305 170.38 96.5331 167.537 93.3024 165.055C91.6933 163.819 91.5833 161.72 93.0557 160.366C94.5281 159.016 97.0299 158.921 98.6421 160.159C103.434 163.839 105.808 168.123 106.4 172.485C107.072 177.423 105.419 182.394 102.405 186.633Z" fill="#2B2A29"/>
<path d="M76.086 139.972C74.3452 140.09 72.8106 139.081 72.6588 137.722C72.5094 136.361 73.802 135.163 75.5429 135.046C78.8966 134.821 82.7769 134.446 86.5717 133.758C90.2718 133.086 93.9099 132.114 96.8985 130.688C98.3879 129.979 100.333 130.347 101.244 131.51C102.152 132.673 101.68 134.191 100.191 134.9C96.5452 136.639 92.276 137.794 88.0067 138.57C83.83 139.327 79.6603 139.731 76.086 139.972Z" fill="#2B2A29"/>
<path d="M175.757 139.972C177.498 140.09 179.032 139.081 179.184 137.722C179.334 136.361 178.041 135.163 176.3 135.046C172.946 134.821 169.066 134.446 165.271 133.758C161.571 133.086 157.933 132.114 154.945 130.688C153.455 129.979 151.51 130.347 150.599 131.51C149.691 132.673 150.163 134.191 151.653 134.9C155.298 136.639 159.567 137.794 163.836 138.57C168.013 139.327 172.183 139.731 175.757 139.972Z" fill="#2B2A29"/>
<defs>
<radialGradient id="paint0_radial_61_143" cx="0" cy="0" r="1" gradientUnits="userSpaceOnUse" gradientTransform="translate(139.456 89.0769) scale(314.715 321.313)">
<stop stop-color="#C8DB86"/>
<stop offset="1" stop-color="#97C456"/>
</radialGradient>
</defs>
</svg>
