<svg width="264" height="252" viewBox="0 0 264 252" fill="none" xmlns="http://www.w3.org/2000/svg">
<path d="M122.385 6.7532C126.512 -1.06941 137.715 -1.0694 141.842 6.75321L175.437 70.4264C177.028 73.4431 179.929 75.5508 183.29 76.1323L254.228 88.4064C262.943 89.9143 266.406 100.569 260.241 106.912L210.066 158.538C207.688 160.984 206.58 164.394 207.066 167.77L217.314 239.029C218.573 247.784 209.509 254.369 201.572 250.466L136.967 218.7C133.906 217.195 130.321 217.195 127.26 218.7L62.6552 250.466C54.7181 254.369 45.6545 247.784 46.9134 239.029L57.1612 167.77C57.6467 164.394 56.5386 160.984 54.1614 158.538L3.98583 106.912C-2.17852 100.569 1.2835 89.9143 9.99864 88.4064L80.9367 76.1323C84.2976 75.5508 87.1986 73.4431 88.7902 70.4264L122.385 6.7532Z" fill="#FFC701"/>
</svg>
