<svg width="180" height="154" viewBox="0 0 180 154" fill="none" xmlns="http://www.w3.org/2000/svg">
<g clip-path="url(#clip0_93_60)">
<path d="M180 62.83V138.62C179.989 142.444 178.466 146.108 175.762 148.812C173.058 151.516 169.394 153.039 165.57 153.05H89.76C87.8633 153.051 85.985 152.679 84.2325 151.953C82.48 151.228 80.8876 150.165 79.5464 148.824C78.2053 147.482 77.1417 145.89 76.4165 144.137C75.6913 142.385 75.3187 140.507 75.32 138.61V113.61H25C20.7614 113.594 16.7009 111.903 13.7038 108.906C10.7066 105.909 9.01581 101.849 9 97.61V25.05C9.00261 20.8027 10.6876 16.7294 13.6862 13.7215C16.6847 10.7135 20.7528 9.01587 25 9H124.33C128.588 9.01319 132.668 10.7105 135.679 13.7214C138.689 16.7322 140.387 20.812 140.4 25.07V48.38H165.52C167.42 48.3761 169.302 48.7469 171.059 49.4713C172.816 50.1957 174.412 51.2595 175.757 52.6017C177.102 53.9439 178.169 55.5382 178.897 57.2933C179.625 59.0484 180 60.9299 180 62.83V62.83Z" fill="black"/>
<path d="M169.62 53.84V129.63C169.62 133.078 168.25 136.384 165.812 138.822C163.374 141.26 160.068 142.63 156.62 142.63H80.78C79.0728 142.63 77.3824 142.294 75.8051 141.64C74.2279 140.987 72.7948 140.03 71.5876 138.822C70.3805 137.615 69.4229 136.182 68.7696 134.605C68.1163 133.028 67.78 131.337 67.78 129.63V103.28H115.42C117.345 103.281 119.251 102.903 121.029 102.168C122.808 101.432 124.424 100.353 125.786 98.9927C127.147 97.6322 128.227 96.0167 128.964 94.2387C129.701 92.4606 130.08 90.5547 130.08 88.63V40.79H156.61C160.064 40.8006 163.373 42.1802 165.812 44.6264C168.251 47.0726 169.62 50.3859 169.62 53.84V53.84Z" fill="#A259FF"/>
<path d="M142 131.19V127.87L154.08 113.75H142.55V111.11H157.47V114.11L145.1 128.55H158V131.19H142Z" fill="black"/>
<path d="M48.76 35.48H140.43V97.59C140.43 101.849 138.738 105.934 135.726 108.946C132.714 111.958 128.629 113.65 124.37 113.65H48.76V35.48Z" fill="black"/>
<path d="M115.39 1.3999H16.06C7.96353 1.3999 1.40002 7.96341 1.40002 16.0599V88.6199C1.40002 96.7164 7.96353 103.28 16.06 103.28H115.39C123.487 103.28 130.05 96.7164 130.05 88.6199V16.0599C130.05 7.96341 123.487 1.3999 115.39 1.3999Z" fill="#C7B9FF"/>
<path d="M11.8699 82.9C11.8264 82.0956 11.9509 81.2908 12.2355 80.5371C12.5201 79.7834 12.9587 79.0973 13.5231 78.5225C14.0876 77.9477 14.7657 77.4967 15.5141 77.1984C16.2625 76.9002 17.0648 76.7611 17.8699 76.79C18.9929 76.7329 20.1049 77.0357 21.0438 77.6545C21.9827 78.2732 22.6995 79.1755 23.0899 80.23L20.4699 81.23C20.318 80.6301 19.9696 80.0984 19.4803 79.7196C18.9909 79.3408 18.3888 79.1367 17.7699 79.14C16.1199 79.14 14.7699 80.39 14.7699 82.95C14.7699 85.51 16.1399 86.81 17.7699 86.81C18.4423 86.8154 19.0953 86.5854 19.6158 86.1598C20.1363 85.7343 20.4916 85.14 20.6199 84.48L23.2999 85.41C22.8943 86.5285 22.1442 87.4893 21.1576 88.1542C20.171 88.8191 18.9989 89.1538 17.8099 89.11C14.3299 89.06 11.8699 86.64 11.8699 82.9Z" fill="black"/>
<path d="M24.72 82.92C24.6687 82.1254 24.7827 81.3288 25.0548 80.5805C25.327 79.8322 25.7513 79.1484 26.301 78.5724C26.8507 77.9964 27.5139 77.5406 28.2487 77.2338C28.9834 76.927 29.7738 76.7759 30.57 76.79C33.96 76.79 36.4 79.3 36.4 82.92C36.4 86.54 33.94 89.06 30.57 89.06C29.7759 89.0638 28.9894 88.9054 28.2587 88.5944C27.528 88.2835 26.8686 87.8265 26.3208 87.2516C25.773 86.6767 25.3485 85.9959 25.0732 85.251C24.7979 84.5062 24.6777 83.7129 24.72 82.92V82.92ZM33.45 82.92C33.45 80.34 32.26 79.04 30.57 79.04C28.88 79.04 27.67 80.34 27.67 82.92C27.67 85.5 28.85 86.71 30.57 86.71C32.29 86.71 33.45 85.53 33.45 83V82.92Z" fill="black"/>
<path d="M39.05 88.7099V77.1399H41.7901V78.8299C42.1317 78.2079 42.6382 77.6922 43.2539 77.3393C43.8696 76.9865 44.5707 76.8102 45.28 76.8299C45.999 76.8155 46.7062 77.0137 47.3128 77.3998C47.9195 77.7858 48.3986 78.3425 48.69 78.9999C49.0798 78.3201 49.6462 77.7585 50.3293 77.3747C51.0125 76.9909 51.7868 76.7991 52.57 76.8199C54.92 76.8199 56.4701 78.1199 56.4701 81.0299V88.7399H53.64V81.6499C53.64 79.8599 52.83 79.1799 51.57 79.1799C49.2 79.1799 49.16 81.6499 49.16 82.9899V88.7099H46.37V81.6499C46.37 79.8599 45.53 79.1799 44.28 79.1799C41.93 79.1799 41.8601 81.6499 41.8601 82.9899V88.7099H39.05Z" fill="black"/>
<path d="M59.8199 88.7099V77.1399H62.5699V78.8299C62.91 78.2087 63.4147 77.6934 64.0287 77.3405C64.6427 76.9876 65.3421 76.811 66.0499 76.8299C66.7692 76.8141 67.4769 77.0119 68.0838 77.3981C68.6907 77.7843 69.1696 78.3417 69.4599 78.9999C69.8496 78.3201 70.4161 77.7585 71.0992 77.3747C71.7824 76.9909 72.5567 76.7991 73.3399 76.8199C75.6899 76.8199 77.2499 78.1199 77.2499 81.0299V88.7399H74.41V81.6499C74.41 79.8599 73.5999 79.1799 72.3499 79.1799C69.9799 79.1799 69.9299 81.6499 69.9299 82.9899V88.7099H67.1399V81.6499C67.1399 79.8599 66.3099 79.1799 65.0499 79.1799C62.6999 79.1799 62.6399 81.6499 62.6399 82.9899V88.7099H59.8199Z" fill="black"/>
<path d="M79.88 85.73C79.88 82.51 83.36 81.51 87.15 81.16V80.76C87.15 79.62 86.52 78.93 85.03 78.93C84.4155 78.8737 83.8013 79.0395 83.2986 79.3973C82.7959 79.755 82.4381 80.2811 82.29 80.88L79.72 80.21C79.97 78.49 81.78 76.79 85.03 76.79C88.28 76.79 90 78.28 90 81.11V85.78C90 86.34 90.09 86.48 90.7 86.48H91.76V88.71H89.56C89.3066 88.7528 89.0471 88.7412 88.7986 88.676C88.5502 88.6107 88.3184 88.4933 88.1188 88.3315C87.9192 88.1698 87.7563 87.9674 87.641 87.7378C87.5257 87.5082 87.4606 87.2567 87.45 87C87.0409 87.6544 86.4673 88.1899 85.7864 88.5532C85.1055 88.9164 84.3413 89.0946 83.57 89.07C81.41 89.06 79.88 87.78 79.88 85.73ZM87.15 84V83C84.78 83.25 82.76 83.79 82.76 85.46C82.76 86.34 83.34 86.9 84.5 86.9C84.8705 86.9032 85.2376 86.8284 85.5773 86.6804C85.917 86.5324 86.2217 86.3146 86.4717 86.041C86.7216 85.7675 86.9112 85.4444 87.0281 85.0927C87.145 84.7411 87.1865 84.3688 87.15 84V84Z" fill="black"/>
<path d="M93.63 88.7099V77.1399H96.37V78.9999C96.735 78.3298 97.2765 77.7723 97.9358 77.388C98.5951 77.0038 99.347 76.8073 100.11 76.8199C102.88 76.8199 104.02 78.5199 104.02 81.0499V88.7399H101.18V81.6499C101.18 79.8999 100.37 79.1599 99.09 79.1599C96.49 79.1599 96.44 82.0399 96.44 83.4299V88.7099H93.63Z" fill="black"/>
<path d="M106.55 82.92C106.55 79.21 108.55 76.79 111.48 76.79C112.218 76.7759 112.948 76.9526 113.598 77.3029C114.248 77.6533 114.796 78.1655 115.19 78.79V72.45H118V88.71H115.23V87.08C114.822 87.7072 114.261 88.2201 113.599 88.5701C112.938 88.92 112.198 89.0955 111.45 89.08C108.55 89.06 106.55 86.64 106.55 82.92ZM115.33 82.92C115.33 80.3 114.13 79.02 112.41 79.02C110.69 79.02 109.5 80.02 109.5 82.92C109.5 85.82 110.78 86.83 112.41 86.83C114.04 86.83 115.33 85.55 115.33 82.92Z" fill="black"/>
<path d="M113.52 31.2901H109.52V24.2301H113.52C116.52 24.2301 118.74 21.7001 118.74 18.4001C118.72 16.8804 118.109 15.4281 117.039 14.3497C115.968 13.2712 114.52 12.6511 113 12.6201C109.74 12.6201 107.21 14.8701 107.21 17.9001V21.9001H100.15V17.9001C100.13 17.7961 100.097 17.6952 100.05 17.6001C99.8346 16.241 99.139 15.0042 98.0895 14.1143C97.0399 13.2244 95.706 12.7403 94.33 12.7501C92.8096 12.7733 91.3579 13.3876 90.2827 14.4629C89.2075 15.5381 88.5932 16.9897 88.57 18.5101C88.5589 20.0147 89.1381 21.4637 90.1831 22.5461C91.2282 23.6286 92.6559 24.2583 94.16 24.3001H97.79V31.3601H93.79C90.87 31.3601 88.64 33.9501 88.64 37.2901C88.6688 38.7986 89.2883 40.2356 90.3655 41.2921C91.4426 42.3487 92.8912 42.9404 94.4 42.9401C97.66 42.9401 100.22 40.7201 100.22 37.6901V33.6901H107.29V37.6901C107.29 40.6901 109.81 42.9101 113.11 42.9101C114.634 42.8896 116.09 42.2771 117.171 41.2021C118.251 40.1272 118.872 38.674 118.9 37.1501C118.77 33.8201 116.55 31.2901 113.52 31.2901ZM109.52 17.9001C109.536 17.4502 109.643 17.0082 109.835 16.6008C110.027 16.1935 110.299 15.8292 110.636 15.5301C110.972 15.231 111.366 15.0032 111.793 14.8606C112.22 14.7179 112.671 14.6633 113.12 14.7001C114.07 14.708 114.978 15.0908 115.646 15.7651C116.315 16.4394 116.69 17.3505 116.69 18.3001C116.69 20.1201 115.58 21.9001 113.52 21.9001H109.52V17.9001ZM97.77 37.6201C97.7498 38.0687 97.6399 38.5086 97.4468 38.914C97.2536 39.3194 96.9812 39.6819 96.6456 39.9802C96.31 40.2786 95.9181 40.5066 95.4928 40.6508C95.0676 40.7951 94.6178 40.8526 94.17 40.8201C93.7067 40.8307 93.2459 40.749 92.8145 40.5796C92.3831 40.4102 91.9898 40.1567 91.6574 39.8336C91.3251 39.5106 91.0604 39.1247 90.8789 38.6982C90.6973 38.2718 90.6025 37.8136 90.6 37.3501C90.6 35.5301 91.71 33.6501 93.7 33.6501H97.7V37.6501L97.77 37.6201ZM97.77 21.8701H94.14C93.2219 21.8145 92.3602 21.4087 91.7326 20.7363C91.105 20.064 90.7594 19.1764 90.7671 18.2566C90.7748 17.3369 91.1352 16.4552 91.774 15.7935C92.4127 15.1317 93.2811 14.7403 94.2 14.7001C94.667 14.6922 95.131 14.7765 95.5654 14.9482C95.9998 15.1199 96.3961 15.3757 96.7314 15.7008C97.0668 16.026 97.3347 16.4141 97.5198 16.843C97.7048 17.2719 97.8035 17.7331 97.81 18.2001V21.8701H97.77ZM107.19 31.2901H100.13V24.2301H107.19V31.2901ZM113.19 40.7501C111.37 40.7501 109.59 39.6701 109.59 37.6201V33.6201H113.59C114.039 33.6352 114.48 33.7404 114.888 33.9295C115.295 34.1186 115.66 34.3876 115.961 34.7207C116.263 35.0537 116.494 35.444 116.642 35.8682C116.789 36.2924 116.85 36.742 116.82 37.1901C116.816 37.6658 116.718 38.1361 116.531 38.5734C116.343 39.0108 116.071 39.4066 115.73 39.7379C115.388 40.0691 114.984 40.3292 114.541 40.5029C114.099 40.6767 113.626 40.7607 113.15 40.7501H113.19Z" fill="black"/>
<path d="M156.58 39.39H131.46V16.06C131.452 11.8013 129.756 7.7195 126.744 4.7091C123.732 1.6987 119.649 0.00528617 115.39 0L16.06 0C11.8031 0.00792975 7.72274 1.70251 4.71262 4.71262C1.70251 7.72274 0.00792975 11.8031 0 16.06L0 88.63C0.00793706 92.886 1.70284 96.9653 4.71324 99.9738C7.72364 102.982 11.804 104.675 16.06 104.68H66.35V129.63C66.35 133.458 67.87 137.129 70.5758 139.837C73.2817 142.545 76.952 144.067 80.78 144.07H156.58C160.405 144.062 164.072 142.538 166.775 139.831C169.478 137.124 170.997 133.455 171 129.63V53.84C170.997 50.0136 169.478 46.3443 166.775 43.6358C164.073 40.9273 160.406 39.4006 156.58 39.39V39.39ZM16.06 101.88C12.5458 101.877 9.17609 100.481 6.69022 97.9968C4.20435 95.5129 2.8053 92.1442 2.8 88.63V16.06C2.80529 12.5449 4.20402 9.17519 6.68961 6.68961C9.17519 4.20402 12.5449 2.80529 16.06 2.8H115.39C118.906 2.80265 122.277 4.20053 124.763 6.68669C127.249 9.17285 128.647 12.544 128.65 16.06V88.63C128.645 92.1442 127.246 95.5129 124.76 97.9968C122.274 100.481 118.904 101.877 115.39 101.88H16.06ZM168.22 129.63C168.217 132.716 166.99 135.675 164.808 137.858C162.625 140.04 159.666 141.267 156.58 141.27H80.78C77.6946 141.267 74.7365 140.04 72.5557 137.857C70.375 135.675 69.15 132.715 69.15 129.63V104.68H115.39C119.648 104.677 123.731 102.986 126.743 99.9774C129.756 96.9685 131.452 92.8877 131.46 88.63V42.2H156.58C159.666 42.2026 162.625 43.4299 164.808 45.6122C166.99 47.7946 168.217 50.7537 168.22 53.84V129.63Z" fill="black"/>
</g>
<defs>
<clipPath id="clip0_93_60">
<rect width="180" height="153.05" fill="white"/>
</clipPath>
</defs>
</svg>
