<svg width="50" height="56" viewBox="0 0 50 56" fill="none" xmlns="http://www.w3.org/2000/svg">
<g clip-path="url(#clip0_58_133)">
<path d="M46.875 29.7577V36.711C46.8743 39.423 45.8001 42.0245 43.887 43.9475L38.938 48.891C37.6729 50.156 36.1708 51.1594 34.5176 51.844C32.8645 52.5286 31.0925 52.881 29.3031 52.881C27.5137 52.881 25.7417 52.5286 24.0886 51.844C22.4354 51.1594 20.9333 50.156 19.6682 48.891L1.438 30.6724C0.834836 30.0349 0.504213 29.1875 0.516429 28.3102C0.528645 27.4329 0.882736 26.595 1.50341 25.9746C2.12409 25.3542 2.9624 25.0003 3.84008 24.9881C4.71777 24.9759 5.5656 25.3064 6.20331 25.9093L3.2495 22.9599C2.62906 22.3255 2.28398 21.4721 2.28917 20.585C2.29435 19.6978 2.64939 18.8485 3.2772 18.2214C3.90502 17.5943 4.75495 17.24 5.64251 17.2354C6.53007 17.2308 7.38364 17.5762 8.01793 18.1968L5.06723 15.2444C4.46407 14.6069 4.13345 13.7595 4.14566 12.8822C4.15788 12.0049 4.51197 11.167 5.13265 10.5466C5.75332 9.92625 6.59163 9.57232 7.46931 9.56011C8.347 9.5479 9.19483 9.87837 9.83255 10.4813L11.4729 12.1333C10.8393 11.5016 10.4827 10.6443 10.4815 9.74988C10.4804 8.85545 10.8347 7.9972 11.4666 7.36392C12.0986 6.73064 12.9563 6.37422 13.8511 6.37305C14.746 6.37188 15.6046 6.72607 16.2382 7.3577L33.5471 24.6555C34.0474 23.9143 34.6187 23.2235 35.2527 22.5928L29.9956 15.207C29.2813 14.1996 28.9956 12.9504 29.2009 11.7328C29.4063 10.5153 30.086 9.42866 31.0913 8.71103L32.134 7.96748C32.2704 7.87155 32.4244 7.80349 32.5872 7.7672C32.75 7.73091 32.9183 7.72711 33.0826 7.75602C33.2468 7.78492 33.4038 7.84596 33.5444 7.93564C33.685 8.02532 33.8065 8.14186 33.9019 8.27859L44.9795 23.8341C46.212 25.5637 46.8746 27.6342 46.875 29.7577Z" fill="#C7B9FF"/>
<path d="M48.0204 26.2359L36.946 10.6804C36.8151 10.4955 36.649 10.3383 36.4573 10.2177C36.2655 10.097 36.0519 10.0153 35.8286 9.97726L35.6574 9.95548L34.2723 8.01103C34.1415 7.82669 33.9756 7.66995 33.7841 7.54981C33.5927 7.42967 33.3793 7.34849 33.1564 7.31092C32.9335 7.27334 32.7053 7.28012 32.485 7.33086C32.2647 7.3816 32.0565 7.4753 31.8725 7.60659L30.8298 8.34703C29.7264 9.1341 28.9802 10.3264 28.755 11.6626C28.5298 12.9987 28.8439 14.3696 29.6284 15.4746L34.6645 22.5524C34.2452 22.9958 33.8533 23.4644 33.491 23.9555L16.5588 7.03415C16.0047 6.47882 15.293 6.10754 14.5203 5.97081C13.7477 5.83409 12.9517 5.93854 12.2406 6.26998C11.5295 6.60142 10.9377 7.14374 10.5458 7.8232C10.154 8.50266 9.98099 9.28628 10.0504 10.0675C9.31158 9.42551 8.35445 9.09139 7.37641 9.134C6.39836 9.17662 5.47395 9.59271 4.79379 10.2965C4.11363 11.0003 3.72957 11.9381 3.72079 12.9166C3.71202 13.8951 4.07921 14.8396 4.74664 15.5555L5.95431 16.7626C5.84848 16.7626 5.74265 16.7626 5.64305 16.7626C4.88549 16.762 4.14481 16.9863 3.51492 17.407C2.88503 17.8276 2.39428 18.4258 2.1049 19.1256C1.81552 19.8254 1.74053 20.5953 1.88945 21.3377C2.03836 22.0802 2.40447 22.7617 2.94136 23.2959L4.15214 24.503C3.37377 24.4374 2.59399 24.6119 1.91794 25.0031C1.2419 25.3942 0.702099 25.9832 0.371342 26.6905C0.0405846 27.3978 -0.0652259 28.1895 0.0681782 28.9588C0.201582 29.7281 0.567785 30.438 1.11741 30.9928L19.3383 49.2084L19.4441 49.3079L22.012 51.8746C24.5653 54.4362 28.0085 55.9149 31.6251 56.003C35.2417 56.0911 38.7529 54.7818 41.428 52.3475L46.8594 46.9186C47.855 45.9295 48.6443 44.7528 49.1818 43.4568C49.7192 42.1607 49.9942 40.7709 49.9907 39.3679V32.4239C49.9961 30.2063 49.3072 28.0425 48.0204 26.2359ZM1.75859 26.2359C2.30592 25.6901 3.0475 25.3836 3.82066 25.3836C4.59381 25.3836 5.33539 25.6901 5.88272 26.2359L18.7438 39.0879L19.3819 38.4501L6.53636 25.5888L3.58566 22.6395C3.08207 22.0859 2.81073 21.3599 2.8278 20.6119C2.84487 19.8639 3.14904 19.1511 3.67736 18.621C4.20567 18.0909 4.91768 17.7842 5.66598 17.7643C6.41428 17.7444 7.14159 18.0129 7.69734 18.5141L21.7038 32.5141L22.3263 31.8733L8.31985 17.8733L5.38782 14.9333C5.11621 14.6626 4.9006 14.3411 4.75329 13.9871C4.60598 13.6332 4.52987 13.2537 4.52929 12.8703C4.52812 12.0961 4.83471 11.3531 5.3816 10.8048C5.92849 10.2565 6.6709 9.94784 7.44549 9.94667C8.22008 9.9455 8.96341 10.2519 9.51195 10.7986L26.273 27.555L26.9142 26.9141L11.7935 11.8004C11.2715 11.2482 10.9855 10.5144 10.9963 9.75482C11.007 8.99525 11.3137 8.26981 11.8511 7.73266C12.3885 7.19551 13.1143 6.88898 13.8742 6.87822C14.6341 6.86746 15.3683 7.15331 15.9207 7.67503L32.9681 24.7146C31.4668 27.054 30.608 29.7472 30.4781 32.5235C30.3038 36.5306 31.6546 40.1861 34.2816 42.815L34.9228 42.1741C29.9614 37.215 30.254 28.2115 35.564 22.9101L35.8348 22.6395L30.3629 14.9333C29.7173 14.0232 29.4593 12.8943 29.6455 11.7942C29.8316 10.6942 30.4467 9.71294 31.3558 9.0657L32.3985 8.32526C32.4857 8.26304 32.5843 8.21867 32.6887 8.19468C32.793 8.1707 32.9011 8.16758 33.0067 8.18551C33.1123 8.20344 33.2133 8.24205 33.3039 8.29914C33.3945 8.35623 33.4729 8.43066 33.5346 8.51814L44.6122 24.0737C45.7914 25.7262 46.4237 27.7061 46.4206 29.7359V36.711C46.4239 37.9953 46.1725 39.2674 45.681 40.4539C45.1895 41.6405 44.4676 42.7179 43.557 43.6239L39.0936 48.0853L38.5956 48.5706C37.3727 49.7936 35.9206 50.7637 34.3224 51.4257C32.7243 52.0876 31.0113 52.4283 29.2813 52.4283C27.5514 52.4283 25.8384 52.0876 24.2402 51.4257C22.642 50.7637 21.19 49.7936 19.967 48.5706L1.75859 30.355C1.21157 29.8078 0.904296 29.0659 0.904296 28.2924C0.904296 27.5188 1.21157 26.7769 1.75859 26.2297V26.2359Z" fill="black"/>
<path d="M41.7611 13.1849C40.1052 6.82583 35.9717 3.73338 29.1272 3.73338H29.1023V2.80005H29.1272C36.3515 2.80005 40.902 6.22227 42.6544 12.9423L41.7611 13.1849Z" fill="black"/>
<path d="M43.3298 9.13733C42.1719 4.68222 36.946 0.933333 31.9192 0.933333V0C37.3506 0 42.9532 4.07556 44.2231 8.904L43.3298 9.13733Z" fill="black"/>
<path d="M14.9185 49.2084C7.99614 48.443 3.96228 44.4204 2.93202 37.2586L3.844 37.1279C4.82134 43.9164 8.47858 47.5688 15.0212 48.2937L14.9185 49.2084Z" fill="black"/>
<path d="M11.1367 51.3335C6.15662 50.7828 1.32283 45.7894 0.554034 40.429L1.46912 40.2983C2.18501 45.2761 6.66086 49.9086 11.2394 50.4188L11.1367 51.3335Z" fill="black"/>
</g>
<defs>
<clipPath id="clip0_58_133">
<rect width="50" height="56" fill="white"/>
</clipPath>
</defs>
</svg>
